<?xml version="1.0" standalone="no"?>
<!DOCTYPE svg PUBLIC "-//W3C//DTD SVG 1.1//EN" "http://www.w3.org/Graphics/SVG/1.1/DTD/svg11.dtd" >
<svg>
<metadata>
Created by FontForge 20110222 at Tue Aug  6 06:47:20 2013
 By Orthosie Webhosting
(c)1991,1993 Tilde Ltd. AG Fonts collection.
</metadata>
<defs>
<font id="AGLettericaCondensedLightRoman" horiz-adv-x="444" >
  <font-face 
    font-family="AGLettericaCondensedLightRoman"
    font-weight="400"
    font-stretch="normal"
    units-per-em="1000"
    panose-1="0 0 0 0 0 0 0 0 0 0"
    ascent="800"
    descent="-200"
    x-height="552"
    cap-height="750"
    bbox="-40 -191 1000 943"
    underline-thickness="58"
    underline-position="-61"
    unicode-range="U+0020-2122"
  />
<missing-glyph horiz-adv-x="800" 
d="M50 0v800h700v-800h-700zM700 50v700h-600v-700h600z" />
    <glyph glyph-name=".notdef" horiz-adv-x="800" 
d="M50 0v800h700v-800h-700zM700 50v700h-600v-700h600z" />
    <glyph glyph-name=".null" horiz-adv-x="0" 
 />
    <glyph glyph-name="nonmarkingreturn" horiz-adv-x="222" 
 />
    <glyph glyph-name="space" unicode=" " horiz-adv-x="222" 
 />
    <glyph glyph-name="exclam" unicode="!" horiz-adv-x="222" 
d="M133 189h-40q0 67 -3 135q-9 204 -9 227v199h64v-199q0 -67 -3 -135q-9 -204 -9 -227zM146 13h-69v88h69v-88z" />
    <glyph glyph-name="quotedbl" unicode="&#x22;" horiz-adv-x="309" 
d="M73 524v226h52v-226h-52zM184 524v226h52v-226h-52z" />
    <glyph glyph-name="numbersign" unicode="#" 
d="M49 0l64 249h-100l15 51h97l34 131h-99l15 51h96l65 262h48l-66 -262h70l65 262h47l-65 -262h96l-15 -51h-92l-34 -131h94l-15 -51h-91l-62 -249h-50l64 249h-70l-64 -249h-47zM172 300h70l34 131h-69z" />
    <glyph glyph-name="dollar" unicode="$" 
d="M197 402v258q-52 -8 -75.5 -41t-23.5 -87q0 -39 24.5 -75.5t74.5 -54.5zM244 315v-278q54 0 86 43q29 39 29 96q0 51 -34 87q-28 30 -81 52zM244 -14v-82h-47v82q-90 8 -133 72q-38 57 -38 153h60q0 -71 21 -113q27 -54 90 -60v298q-78 34 -115 74q-47 51 -47 127
q0 52 25 94q42 70 137 80v67h47v-62q85 -18 124 -76q31 -47 31 -117h-58q0 48 -21 83q-25 43 -76 54v-278q44 -19 76 -38q25 -15 44 -33q29 -27 42.5 -58t13.5 -76q0 -82 -47 -132t-129 -59z" />
    <glyph glyph-name="percent" unicode="%" horiz-adv-x="778" 
d="M575 358q72 0 105 -57q26 -46 26 -124q0 -93 -34 -136t-98 -43q-78 0 -109 55q-24 43 -24 124q0 82 25 125q33 56 109 56zM577 42q39 0 56 36.5t17 98.5q0 61 -10 89q-17 48 -65 48q-47 0 -66 -52q-12 -34 -12 -85q0 -74 19.5 -104.5t60.5 -30.5zM207 728q72 0 105 -57
q26 -46 26 -124q0 -93 -34 -135.5t-98 -42.5q-78 0 -109 55q-24 42 -24 123q0 82 25 125q33 56 109 56zM209 413q39 0 56 36.5t17 98.5q0 60 -10 88q-17 48 -65 48q-47 0 -66 -52q-12 -33 -12 -84q0 -74 19.5 -104.5t60.5 -30.5zM215 -15l304 756h44l-304 -756h-44z" />
    <glyph glyph-name="ampersand" unicode="&#x26;" horiz-adv-x="611" 
d="M416 119l-174 264q-57 -43 -83 -82q-31 -48 -31 -113q0 -67 38.5 -107.5t103.5 -40.5q50 0 85 18t61 61zM260 470q39 27 63.5 68.5t24.5 88.5q0 83 -77 83q-76 0 -76 -78q0 -44 19 -87q14 -32 46 -75zM215 431q-41 61 -56 93q-22 49 -22 106q0 65 37.5 101.5t100.5 36.5
q60 0 99 -36t39 -98q0 -67 -34 -120q-28 -44 -87 -88l156 -244l3 6q12 35 18 75.5t6 79.5h65q0 -45 -13.5 -109.5t-32.5 -99.5l-4 -8l83 -133h-71l-51 76l-3 -4q-36 -44 -79 -63.5t-101 -19.5q-95 0 -150 56t-55 156q0 75 46 138q35 47 106 99z" />
    <glyph glyph-name="quotesingle" unicode="'" horiz-adv-x="198" 
d="M73 524v226h52v-226h-52z" />
    <glyph glyph-name="parenleft" unicode="(" horiz-adv-x="278" 
d="M197 768h47q-66 -100 -96.5 -218.5t-30.5 -250.5q0 -140 29.5 -261t97.5 -229h-47q-145 221 -145 489q0 130 36 249.5t109 220.5z" />
    <glyph glyph-name="parenright" unicode=")" horiz-adv-x="278" 
d="M81 -191h-47q65 98 96 219.5t31 248.5q0 136 -27.5 251.5t-92.5 229.5l-7 10h47q70 -105 107.5 -228t37.5 -249q0 -135 -34 -253q-37 -128 -111 -229z" />
    <glyph glyph-name="asterisk" unicode="*" horiz-adv-x="389" 
d="M156 593l-108 37l14 42l112 -42v114h44v-114l111 42l13 -45l-109 -36l72 -105l-36 -24l-75 107l-77 -107l-35 27z" />
    <glyph glyph-name="plus" unicode="+" 
d="M197 220h-176v51h176v219h51v-219h176v-51h-176v-220h-51v220z" />
    <glyph glyph-name="comma" unicode="," horiz-adv-x="222" 
d="M77 -136v37q17 7 23.5 23.5t6.5 62.5v13h-30v88h69v-56q0 -11 -1 -35t-1 -36q-4 -45 -18.5 -66.5t-48.5 -30.5z" />
    <glyph glyph-name="hyphen" unicode="-" horiz-adv-x="333" 
d="M294 269h-259v58h259v-58z" />
    <glyph glyph-name="period" unicode="." horiz-adv-x="222" 
d="M146 0h-69v88h69v-88z" />
    <glyph glyph-name="slash" unicode="/" horiz-adv-x="278" 
d="M-10 -94l244 844h55l-245 -844h-54z" />
    <glyph glyph-name="zero" unicode="0" 
d="M37 370q0 219 56 306q44 68 132 68q78 0 123 -60q35 -47 49 -136q10 -63 10 -145v-50q0 -112 -10 -175q-14 -90 -52 -137q-44 -55 -126 -55q-77 0 -119 53q-38 47 -50.5 128t-12.5 203zM102 353q0 -174 26 -243.5t90 -69.5q52 0 78 40q46 72 46 278q0 174 -18 238
q-26 94 -108 94q-63 0 -88.5 -73t-25.5 -264z" />
    <glyph glyph-name="one" unicode="1" 
d="M60 560v47q83 0 120 26q43 31 51 111h53v-744h-65v572q-19 -4 -37 -6t-38 -2q-14 0 -48 -2t-36 -2z" />
    <glyph glyph-name="two" unicode="2" 
d="M99 61h297v-61h-362v52q0 63 21 103q9 18 114 125q43 44 84.5 88t57.5 80q20 45 20 103q0 52 -22 91q-27 48 -74 48q-7 1 -21 1q-62 0 -90 -53q-22 -42 -22 -115h-62q0 96 41 154q48 67 138 67q79 0 128 -54t49 -145q0 -74 -43 -146q-32 -54 -101 -123l-112 -108
q-15 -15 -25 -36q-16 -33 -16 -71z" />
    <glyph glyph-name="three" unicode="3" 
d="M192 353h-44v54h20q149 0 149 149q0 58 -22 92q-27 42 -83 42t-84 -48q-23 -40 -23 -98h-59q0 85 37 138q43 62 124 62q84 0 131 -55q44 -52 44 -138q0 -57 -29 -101t-80 -65q71 -16 103 -75q25 -46 25 -114q0 -101 -50.5 -155.5t-136.5 -54.5q-83 0 -129 45
q-55 54 -55 163h61q0 -68 25 -107q31 -47 96 -47q64 0 96 49q28 42 28 109q0 59 -25 98q-37 57 -119 57z" />
    <glyph glyph-name="four" unicode="4" 
d="M28 260l257 484h61v-490h66v-54h-66v-200h-65v200h-253v60zM87 254h194v373z" />
    <glyph glyph-name="five" unicode="5" 
d="M27 178h64q0 -61 24 -96q29 -42 88 -42q70 0 103 64q27 53 27 138q0 82 -25 127q-32 57 -103 57q-34 0 -61.5 -20t-41.5 -52h-55l43 376h278v-61h-224l-28 -227q20 20 47.5 29t55.5 9q95 0 141 -75q38 -62 38 -165q0 -108 -43 -175q-51 -79 -151 -79q-90 0 -133.5 51
t-43.5 141z" />
    <glyph glyph-name="six" unicode="6" 
d="M222 416q-66 0 -96 -56q-24 -44 -24 -115q0 -77 23 -131q32 -74 98 -74q64 0 96 68q24 52 24 124q0 75 -23 122q-30 62 -98 62zM226 -14q-81 0 -127 59q-37 47 -52 134q-10 58 -10 145q0 177 23 261q44 159 176 159q70 0 113.5 -44.5t43.5 -119.5h-60q0 52 -25 81t-78 29
q-41 0 -71 -39q-24 -31 -34.5 -75t-16.5 -88t-6 -89q28 35 60.5 53t73.5 18q90 0 136 -80q36 -63 36 -154q0 -98 -34 -162q-47 -88 -148 -88z" />
    <glyph glyph-name="seven" unicode="7" 
d="M51 669v61h361v-59q-43 -53 -96 -159q-41 -82 -68 -154q-71 -187 -71 -358h-65q0 160 65 346t170 323h-296z" />
    <glyph glyph-name="eight" unicode="8" 
d="M220 364q-54 0 -85 -38q-34 -42 -34 -119q0 -69 25 -113q31 -54 90 -54q70 0 102 51q26 42 26 116q0 71 -26 110q-31 47 -98 47zM221 690q-68 0 -88.5 -68.5t-11.5 -77.5q2 -56 24 -88q26 -38 79 -38q51 0 77 44q21 36 21 91q0 60 -20 94q-25 43 -81 43zM142 396
q-45 19 -65 66q-16 38 -16 95q0 81 39 131q43 56 122 56q83 0 125 -56q37 -50 37 -137q0 -53 -17 -90q-20 -44 -63 -63q57 -30 83 -84q22 -47 22 -110q0 -116 -52 -170q-46 -48 -150 -48q-74 0 -122.5 59t-48.5 156q0 67 20 110q25 53 86 85z" />
    <glyph glyph-name="nine" unicode="9" 
d="M221 690q-64 0 -94 -68q-22 -50 -22 -125q0 -77 21 -122q29 -62 96 -62q65 0 95 56q23 44 23 115q0 79 -22 132q-30 74 -97 74zM221 744q113 0 156 -118q28 -77 28 -215q0 -187 -20 -264q-42 -161 -176 -161q-70 0 -112.5 44.5t-42.5 118.5h60q0 -52 25.5 -80.5
t77.5 -28.5q41 0 71 38q24 31 35 77q17 74 17 175q-26 -35 -56.5 -53t-72.5 -18q-91 0 -136 80q-35 62 -35 154q0 97 34 162q47 89 147 89z" />
    <glyph glyph-name="colon" unicode=":" horiz-adv-x="222" 
d="M146 433h-69v88h69v-88zM146 0h-69v88h69v-88z" />
    <glyph glyph-name="semicolon" unicode=";" horiz-adv-x="222" 
d="M77 -136v37q17 7 23.5 23.5t6.5 62.5v13h-30v88h69v-56q0 -11 -1 -35t-1 -36q-4 -45 -18.5 -66.5t-48.5 -30.5zM77 433v88h69v-88h-69z" />
    <glyph glyph-name="less" unicode="&#x3c;" 
d="M19 223v44l407 234v-56l-353 -195v-5l353 -201v-56z" />
    <glyph glyph-name="equal" unicode="=" 
d="M424 360v-51h-403v51h403zM424 182v-51h-403v51h403z" />
    <glyph glyph-name="greater" unicode="&#x3e;" 
d="M426 267v-44l-407 -234v56l353 195v5l-353 201v56z" />
    <glyph glyph-name="question" unicode="?" horiz-adv-x="389" 
d="M203 171h-56q0 71 16.5 118t60.5 106q39 51 53 80q22 45 22 93q0 57 -26.5 92t-75.5 35q-69 0 -95 -47q-20 -36 -20 -112h-62q0 87 31 140q43 74 141 74q72 0 117 -42q52 -48 52 -136q0 -51 -16 -91q-19 -48 -72 -115q-43 -55 -56.5 -91t-13.5 -104zM211 0h-70v88h70v-88
z" />
    <glyph glyph-name="at" unicode="@" horiz-adv-x="800" 
d="M431 564q-77 0 -140 -90q-58 -83 -58 -162q0 -55 28.5 -87.5t71.5 -32.5q50 0 88 27q33 23 45 60l53 158q6 18 6 36q0 39 -25 65t-69 26zM549 541l15 49h55l-105 -314q-5 -16 -9 -30.5t-4 -26.5q0 -17 9 -27t33 -10q32 0 72 33q32 26 56 61q19 26 36 77t17 92
q0 122 -94 201q-89 75 -212 75q-143 0 -242.5 -103.5t-99.5 -246.5q0 -140 101.5 -240.5t242.5 -100.5q80 0 157 39t127 107h53q-48 -89 -141 -141.5t-196 -52.5q-167 0 -280.5 115.5t-113.5 281.5q0 162 116 276t279 114q140 0 244 -90q109 -94 109 -239q0 -49 -18 -102
t-42 -87q-36 -50 -78 -79q-50 -34 -104 -34q-31 0 -53 13q-26 16 -26 45q-29 -26 -63.5 -38t-70.5 -12q-64 0 -100 44t-36 110q0 114 67 207q74 103 182 103q39 0 70.5 -17.5t46.5 -51.5z" />
    <glyph glyph-name="A" unicode="A" horiz-adv-x="500" 
d="M150 289h200l-99 379zM213 750h75l201 -750h-66l-59 231h-228l-61 -231h-63z" />
    <glyph glyph-name="B" unicode="B" horiz-adv-x="500" 
d="M195 364h-68v-306h81q93 0 134 31q47 36 47 128t-56 124q-40 23 -138 23zM127 422h67q89 0 127 26q47 32 47 117q0 80 -53 108q-37 19 -127 19h-61v-270zM165 0h-103v750h164q47 0 85 -8t66.5 -33.5t42 -61.5t13.5 -80q0 -60 -23 -103q-26 -48 -79 -68q63 -17 93 -64
t30 -116q0 -131 -83 -179q-63 -37 -206 -37z" />
    <glyph glyph-name="C" unicode="C" horiz-adv-x="556" 
d="M427 254h65q0 -109 -49 -184q-58 -88 -163 -88q-99 0 -152 72q-42 57 -56 164q-9 68 -9 178q0 100 12 164q18 94 61 145q54 63 146 63q98 0 153 -69q51 -64 51 -165h-65q0 74 -32 121q-38 55 -109 55q-102 0 -135 -126q-17 -65 -17 -203q0 -150 17 -213q34 -128 142 -128
q76 0 112 72q28 56 28 142z" />
    <glyph glyph-name="D" unicode="D" horiz-adv-x="556" 
d="M137 692v-634h78h14q41 0 61.5 3.5t39.5 12.5q65 30 90 134q15 63 15 168q0 113 -11 165q-21 98 -86 134q-18 10 -46.5 13.5t-62.5 3.5h-36h-56zM72 0v750h134q81 0 120 -10q60 -15 102 -61q35 -42 55 -118q17 -64 17 -129v-33q0 -81 -5 -139t-24 -107q-32 -91 -96 -125
q-52 -28 -156 -28h-147z" />
    <glyph glyph-name="E" unicode="E" 
d="M412 0h-345v750h340v-58h-275v-270h250v-58h-250v-306h280v-58z" />
    <glyph glyph-name="F" unicode="F" 
d="M134 0h-65v750h345v-58h-280v-270h250v-58h-250v-364z" />
    <glyph glyph-name="G" unicode="G" horiz-adv-x="556" 
d="M418 314h-161v58h226v-372h-52l-7 77q-56 -95 -164 -95q-96 0 -149 72q-42 57 -56 162q-9 65 -9 174q0 110 10 169q16 96 60 147q54 62 153 62q91 0 147 -65t56 -158h-62q-10 73 -37 113q-35 52 -102 52q-107 0 -142 -129q-18 -66 -18 -206q0 -133 20 -206
q36 -129 134 -129q94 0 130 97q23 62 23 177z" />
    <glyph glyph-name="H" unicode="H" horiz-adv-x="556" 
d="M133 0h-65v750h65v-319h290v319h65v-750h-65v373h-290v-373z" />
    <glyph glyph-name="I" unicode="I" horiz-adv-x="222" 
d="M144 0h-65v750h65v-750z" />
    <glyph glyph-name="J" unicode="J" horiz-adv-x="389" 
d="M12 219h65v-16q0 -80 11 -110q19 -53 81 -53q40 0 61 24.5t21 99.5v586h65v-590q0 -84 -33 -128q-38 -50 -120 -50q-78 0 -117 56q-34 49 -34 129v52z" />
    <glyph glyph-name="K" unicode="K" horiz-adv-x="500" 
d="M132 0h-65v750h65v-375l273 375h75l-222 -303l233 -447h-70l-205 394l-84 -110v-284z" />
    <glyph glyph-name="L" unicode="L" 
d="M417 0h-343v750h65v-692h278v-58z" />
    <glyph glyph-name="M" unicode="M" horiz-adv-x="722" 
d="M138 0h-65v750h109l178 -654l184 654h106v-750h-65v685l-188 -685h-69l-188 685z" />
    <glyph glyph-name="N" unicode="N" horiz-adv-x="556" 
d="M147 750l276 -644l2 644h65v-750h-79l-278 642l-2 -642h-65v750h81z" />
    <glyph glyph-name="O" unicode="O" horiz-adv-x="556" 
d="M276 -18q-100 0 -153 72q-43 58 -57 164q-8 60 -8 178q0 101 12 164q18 93 62 145q54 63 146 63q102 0 155 -69q42 -55 57 -161q9 -65 9 -179q0 -112 -10 -170q-16 -96 -60 -146q-53 -61 -153 -61zM282 40q80 0 116 74.5t36 259.5q0 141 -19 209q-36 127 -140 127
q-97 0 -132 -124q-20 -72 -20 -205q0 -150 17 -213q34 -128 142 -128z" />
    <glyph glyph-name="P" unicode="P" horiz-adv-x="500" 
d="M141 0h-65v750h133q133 0 190 -40q63 -44 63 -156q0 -55 -14.5 -96t-46 -67.5t-87.5 -40.5q-43 -11 -74 -11h-99v-339zM141 692v-295h56q101 0 143 25q57 34 57 126q0 81 -42 115q-36 29 -119 29h-95z" />
    <glyph glyph-name="Q" unicode="Q" horiz-adv-x="556" 
d="M359 66l-76 61l36 45l76 -62q27 48 35 134q4 43 4 130q0 141 -19 209q-36 127 -140 127q-97 0 -132 -124q-20 -72 -20 -205q0 -150 17 -213q34 -128 142 -128q46 0 77 26zM445 69l82 -67l-35 -44l-83 68q-23 -21 -56 -32.5t-77 -11.5q-100 0 -153 71q-43 57 -57 164
q-8 59 -8 178q0 102 12 165q18 93 62 145q54 63 146 63q102 0 155 -69q42 -55 57 -161q9 -65 9 -179q0 -95 -8 -152q-12 -85 -46 -138z" />
    <glyph glyph-name="R" unicode="R" horiz-adv-x="500" 
d="M195 353h-67v-353h-65v750h145q112 0 167 -39q64 -46 64 -153q0 -62 -25 -109q-29 -55 -85 -67q60 -16 82 -66q18 -40 18 -119q0 -69 3 -100q7 -75 31 -88v-9h-71q-18 40 -24 112t-6 134q0 68 -51 91q-35 16 -116 16zM128 692v-281h114q42 0 74 20q58 36 58 122
q0 80 -35.5 109.5t-116.5 29.5h-94z" />
    <glyph glyph-name="S" unicode="S" horiz-adv-x="500" 
d="M211 433l58 -24q103 -43 137 -74q55 -50 55 -142q0 -97 -58 -154t-157 -57t-152.5 63.5t-53.5 166.5h64q0 -78 31 -121q36 -51 110 -51q69 0 110 40t41 111q0 75 -51 112q-20 15 -117 53q-87 34 -124 72q-49 50 -49 133q0 93 52 150t143 57q87 0 139 -55t52 -144h-63
q0 64 -33.5 102.5t-95.5 38.5t-95.5 -40.5t-33.5 -104.5q0 -55 19.5 -82t71.5 -50z" />
    <glyph glyph-name="T" unicode="T" 
d="M190 692h-170v58h405v-58h-170v-692h-65v692z" />
    <glyph glyph-name="U" unicode="U" horiz-adv-x="556" 
d="M73 198v552h65v-544q0 -86 26 -123q30 -43 111 -43q82 0 115 48q28 40 28 124v538h65v-522q0 -120 -42 -178q-49 -68 -164 -68q-106 0 -155 55t-49 161z" />
    <glyph glyph-name="V" unicode="V" horiz-adv-x="500" 
d="M215 0l-201 750h68l168 -665l174 665h63l-199 -750h-73z" />
    <glyph glyph-name="W" unicode="W" horiz-adv-x="722" 
d="M397 750l123 -636l122 636h63l-148 -750h-73l-125 642l-124 -642h-73l-145 750h66l114 -633l125 633h75z" />
    <glyph glyph-name="X" unicode="X" horiz-adv-x="500" 
d="M211 387l-184 363h73l149 -301l153 301h72l-186 -363l194 -387h-71l-162 326l-161 -326h-70z" />
    <glyph glyph-name="Y" unicode="Y" horiz-adv-x="500" 
d="M249 393l165 357h68l-200 -431v-319h-65v319l-198 431h72z" />
    <glyph glyph-name="Z" unicode="Z" 
d="M411 0h-377v60l307 632h-293v58h363v-56l-309 -636h309v-58z" />
    <glyph glyph-name="bracketleft" unicode="[" horiz-adv-x="278" 
d="M229 -58v-46h-155v872h153v-46h-95v-780h97z" />
    <glyph glyph-name="backslash" unicode="\" horiz-adv-x="222" 
d="M208 0l-248 750h54l248 -750h-54z" />
    <glyph glyph-name="bracketright" unicode="]" horiz-adv-x="278" 
d="M204 -104h-155v46h97v780h-95v46h153v-872z" />
    <glyph glyph-name="asciicircum" unicode="^" 
d="M201 750h41l135 -410h-47l-110 335l-107 -335h-47z" />
    <glyph glyph-name="underscore" unicode="_" horiz-adv-x="500" 
d="M500 -119h-500v58h500v-58z" />
    <glyph glyph-name="grave" unicode="`" horiz-adv-x="333" 
d="M229 606h-51l-138 139h78z" />
    <glyph glyph-name="a" unicode="a" horiz-adv-x="389" 
d="M271 201v97q-28 -15 -71 -32.5t-44 -18.5q-44 -19 -58 -41.5t-14 -72.5q0 -44 17.5 -70t59.5 -26q28 0 48.5 10.5t35 32.5t20.5 52.5t6 68.5zM97 413h-56q0 74 37.5 113.5t109.5 39.5q37 0 66.5 -10t47 -32t22.5 -46.5t5 -61.5v-339q0 -25 7 -31t33 -6v-42q-8 -4 -16 -5
t-20 -1q-14 0 -28 3q-19 7 -25 25q-1 3 -6 25q-22 -29 -54 -44t-69 -15q-70 0 -100 45q-25 38 -25 111q0 51 17 85.5t59 56.5q19 9 94 38q34 13 57 24q13 6 15 18.5t2 36.5q0 16 -0.5 29.5t-3.5 29.5q-7 27 -24.5 41t-54.5 14q-54 0 -72 -32q-8 -13 -18 -70z" />
    <glyph glyph-name="b" unicode="b" 
d="M229 37q74 0 100 89q15 50 15 148q0 97 -14 148q-26 93 -97 93q-72 0 -97 -86q-14 -49 -14 -143q0 -104 11 -151q23 -98 96 -98zM122 0h-58v750h58v-243q29 30 58.5 44.5t67.5 14.5q92 0 129 -104q25 -70 25 -184q0 -120 -24 -187q-38 -105 -135 -105q-82 0 -119 66z" />
    <glyph glyph-name="c" unicode="c" horiz-adv-x="389" 
d="M300 183h58q0 -86 -33 -137q-39 -60 -120 -60q-75 0 -115 48q-33 39 -45 114q-8 50 -8 131q0 124 25 188q39 99 141 99q70 0 112 -54q38 -49 38 -123h-57q0 53 -26 89.5t-71 36.5q-71 0 -93 -90q-11 -45 -11 -156q0 -98 13 -145q24 -87 98 -87q53 0 75 49q12 28 19 97z
" />
    <glyph glyph-name="d" unicode="d" 
d="M213 515q-71 0 -97 -96q-14 -53 -14 -152q0 -93 16 -144q27 -86 98 -86q67 0 92 81q16 51 16 146v36q0 89 -15 135q-26 80 -96 80zM324 750h58v-750h-58v52q-19 -33 -49.5 -49.5t-71.5 -16.5q-98 0 -135 104q-24 67 -24 188q0 118 25 185q38 103 136 103q71 0 117 -59z
" />
    <glyph glyph-name="e" unicode="e" horiz-adv-x="389" 
d="M352 335v-56h-259v-34q0 -88 15 -134q24 -74 89 -74q56 0 79 46q18 35 18 97h56q0 -85 -34 -135q-40 -59 -120 -59q-101 0 -138 101q-23 63 -23 187t22 187q37 105 137 105q87 0 127 -76q31 -59 31 -155zM93 330h201q0 76 -15 118q-24 67 -86 67q-59 0 -84 -68
q-16 -44 -16 -117z" />
    <glyph glyph-name="f" unicode="f" horiz-adv-x="222" 
d="M77 0v501h-59v51h59v60q0 82 23.5 110t105.5 28v-51q-47 0 -59 -12t-12 -48v-24v-63h69v-51h-69v-501h-58z" />
    <glyph glyph-name="g" unicode="g" 
d="M209 515q-51 0 -78 -60.5t-27 -184.5q0 -98 14 -145q26 -88 99 -88q69 0 93 85q14 49 14 140v40q0 95 -16 140q-26 73 -99 73zM324 552h58v-540q0 -97 -36 -145q-42 -56 -135 -56q-65 0 -106 29q-47 34 -47 96h59q0 -35 30 -56q26 -18 65 -18q79 0 101 59q11 29 11 118
h-4q-22 -28 -51 -40.5t-65 -12.5q-99 0 -135 99q-23 63 -23 185q0 125 20 187q35 109 134 109q43 0 71 -15t51 -49z" />
    <glyph glyph-name="h" unicode="h" 
d="M121 0h-58v750h58v-247q20 31 51.5 47t68.5 16q38 0 68 -10.5t48 -37.5q16 -21 20 -49t4 -69v-400h-58v389q0 62 -12 87q-19 39 -73 39q-39 0 -69 -22t-48 -60v-433z" />
    <glyph glyph-name="i" unicode="i" horiz-adv-x="222" 
d="M140 0h-58v552h58v-552zM145 655h-67v95h67v-95z" />
    <glyph glyph-name="j" unicode="j" horiz-adv-x="222" 
d="M21 -189v54q10 0 20.5 1.5t16.5 2.5q24 8 27 34t3 43v606h58v-608v-15q0 -34 -5 -55.5t-25 -40.5q-19 -13 -42 -17.5t-53 -4.5zM83 750h67v-92h-67v92z" />
    <glyph glyph-name="k" unicode="k" horiz-adv-x="389" 
d="M120 0h-58v750h58v-458l179 260h73l-150 -206l153 -346h-61l-133 287l-61 -85v-202z" />
    <glyph glyph-name="l" unicode="l" horiz-adv-x="222" 
d="M140 0h-58v750h58v-750z" />
    <glyph glyph-name="m" unicode="m" horiz-adv-x="667" 
d="M116 421v-421h-58v552h58v-49q41 63 119 63q41 0 62 -9q31 -13 54 -53q23 31 57.5 46.5t74.5 15.5q70 0 100 -42q27 -37 27 -108v-416h-58v423q0 40 -16 64q-19 29 -60 29q-51 0 -82 -30t-31 -83v-403h-58v399q0 73 -20.5 94.5t-61.5 21.5q-36 0 -71.5 -29.5t-35.5 -64.5
z" />
    <glyph glyph-name="n" unicode="n" 
d="M123 407v-407h-58v552h58v-54q23 31 55.5 49.5t71.5 18.5q55 0 92 -35t37 -93v-438h-58v401q0 58 -12 81q-17 33 -69 33q-46 0 -81.5 -31t-35.5 -77z" />
    <glyph glyph-name="o" unicode="o" 
d="M221 -14q-111 0 -149 103q-23 62 -23 200q0 156 52 222q43 55 123 55q103 0 144 -98q28 -67 28 -190q0 -128 -27 -193q-41 -99 -148 -99zM220 37q76 0 103 89q15 50 15 151q0 103 -15 151q-27 87 -106 87q-68 0 -94 -85q-16 -52 -16 -142q0 -113 11 -156q24 -95 102 -95z
" />
    <glyph glyph-name="p" unicode="p" 
d="M116 279q0 -110 11 -152q24 -90 101 -90q71 0 95 89q13 48 13 145q0 99 -13 150q-24 94 -93 94q-78 0 -102 -86q-12 -44 -12 -150zM118 45v-235h-60v742h58v-50q21 30 49.5 47t62.5 17q100 0 139 -93q27 -65 27 -183q0 -136 -20 -197q-35 -107 -141 -107q-73 0 -115 59z
" />
    <glyph glyph-name="q" unicode="q" 
d="M212 37q76 0 100 89q12 45 12 151q0 104 -11 147q-23 91 -97 91t-99 -92q-13 -48 -13 -152q0 -95 14 -145q25 -89 94 -89zM324 502v50h58v-741h-60v234q-19 -29 -49.5 -44t-65.5 -15q-103 0 -139 99q-22 60 -22 188q0 130 23 192q38 101 143 101q34 0 62 -16.5t50 -47.5z
" />
    <glyph glyph-name="r" unicode="r" horiz-adv-x="278" 
d="M124 552v-64q23 43 53 60.5t80 17.5v-61q-65 0 -97.5 -37.5t-32.5 -105.5v-362h-58v552h55z" />
    <glyph glyph-name="s" unicode="s" horiz-adv-x="389" 
d="M44 407q-1 15 -1 23q0 65 36.5 100.5t106.5 35.5q71 0 110.5 -41.5t39.5 -113.5h-57q0 46 -25 75t-70 29q-40 0 -61 -23t-21 -65q0 -31 19 -53q16 -18 48 -31q92 -42 127 -75q54 -50 54 -130q0 -73 -41.5 -112.5t-115.5 -39.5q-81 0 -121 41.5t-40 122.5h59
q0 -53 26.5 -83t79.5 -30q44 0 69.5 29.5t25.5 74.5q0 60 -64 100q-60 31 -120 63q-64 41 -64 103z" />
    <glyph glyph-name="t" unicode="t" horiz-adv-x="222" 
d="M201 43v-48q-17 -3 -34 -4.5t-20 -1.5q-12 0 -21 3q-37 13 -48.5 33t-11.5 63v413h-50v51h50v162h58v-162h77v-51h-77v-407q0 -21 5.5 -35t23.5 -17q6 -3 20 -3q10 0 28 4z" />
    <glyph glyph-name="u" unicode="u" 
d="M321 132v420h58v-552h-56v51q-27 -35 -61.5 -50t-79.5 -15q-70 0 -99 46q-23 37 -23 112v408h58v-418q0 -53 22 -75t75 -22q32 0 62 29t44 66z" />
    <glyph glyph-name="v" unicode="v" horiz-adv-x="389" 
d="M79 552l116 -447l119 447h59l-146 -552h-63l-147 552h62z" />
    <glyph glyph-name="w" unicode="w" horiz-adv-x="556" 
d="M310 552l87 -440l91 440h57l-120 -552h-61l-85 433l-87 -433h-64l-117 552h58l90 -440l87 440h64z" />
    <glyph glyph-name="x" unicode="x" horiz-adv-x="389" 
d="M311 0l-118 234l-117 -234h-63l145 289l-135 263h65l105 -213l107 213h67l-138 -263l147 -289h-65z" />
    <glyph glyph-name="y" unicode="y" horiz-adv-x="389" 
d="M28 -188v51h28q28 0 45 6t26.5 27.5t17.5 46.5t15 55l-143 554h61l114 -447l122 447h59l-150 -545q-20 -78 -29 -101q-23 -61 -58 -83q-13 -7 -28.5 -10.5t-29.5 -3.5t-26.5 1t-23.5 2z" />
    <glyph glyph-name="z" unicode="z" horiz-adv-x="333" 
d="M315 0h-297v55l231 446h-219v51h280v-54l-229 -447h234v-51z" />
    <glyph glyph-name="braceleft" unicode="{" horiz-adv-x="351" 
d="M130 450v168q0 84 31 117t116 33q-47 -22 -63.5 -47t-16.5 -67v-177q0 -58 -15 -86q-19 -36 -75 -53q53 -11 73 -42q17 -27 17 -85v-190q0 -41 14 -63q18 -28 66 -49q-17 -1 -26 -1q-23 0 -43.5 5.5t-39.5 19.5q-23 17 -30.5 43t-7.5 64v189v11q0 23 -3.5 35.5t-17 29
t-28 24t-33.5 7.5q37 13 53 26q21 16 25 33.5t4 54.5z" />
    <glyph glyph-name="bar" unicode="|" horiz-adv-x="222" 
d="M85 0v750h52v-750h-52z" />
    <glyph glyph-name="braceright" unicode="}" horiz-adv-x="351" 
d="M221 635v-189q0 -30 3 -44t17 -31t28.5 -24.5t33.5 -7.5q-37 -13 -55.5 -27.5t-22.5 -32t-4 -54.5v-168q0 -84 -31 -117t-116 -33q47 22 65 49q15 23 15 65v177q0 58 15 86q19 36 75 53q-53 11 -71.5 40t-18.5 87v190q0 41 -14 63q-18 28 -66 49q17 1 26 1
q23 0 43.5 -5.5t41.5 -21t30 -46.5q6 -21 6 -59z" />
    <glyph glyph-name="asciitilde" unicode="~" 
d="M54 179l-33 35q31 51 57 68.5t57 17.5q19 0 46 -8q18 -5 52.5 -19.5t40.5 -16.5q22 -8 37 -8q24 0 47 20q17 15 33 41l33 -34q-22 -36 -45 -55q-31 -26 -68 -26q-23 0 -69 17q-20 7 -39.5 14.5t-36.5 13.5t-31 6q-33 0 -58 -31q-6 -8 -23 -35z" />
    <glyph glyph-name="c128" horiz-adv-x="648" 
d="M525 164v141q0 114 -102 114q-45 0 -91 -18q-40 -15 -77 -42v-359h-65v692h-170v58h405v-58h-170v-275q40 26 77 39q52 19 107 19q63 0 107 -44t44 -112v-159q0 -81 -44.5 -129.5t-128.5 -48.5h-27v58h27q54 0 83 40q25 34 25 84z" />
    <glyph glyph-name="c128" unicode="&#x402;" horiz-adv-x="648" 
d="M525 164v141q0 114 -102 114q-45 0 -91 -18q-40 -15 -77 -42v-359h-65v692h-170v58h405v-58h-170v-275q40 26 77 39q52 19 107 19q63 0 107 -44t44 -112v-159q0 -81 -44.5 -129.5t-128.5 -48.5h-27v58h27q54 0 83 40q25 34 25 84z" />
    <glyph glyph-name="c129" 
d="M134 0h-65v750h345v-58h-280v-692zM211 804h-51l111 139h78z" />
    <glyph glyph-name="c129" unicode="&#x403;" 
d="M134 0h-65v750h345v-58h-280v-692zM211 804h-51l111 139h78z" />
    <glyph glyph-name="c141" horiz-adv-x="500" 
d="M132 0h-65v750h65v-375l273 375h75l-222 -303l233 -447h-70l-205 394l-84 -110v-284zM239 804h-51l111 139h78z" />
    <glyph glyph-name="c141" unicode="&#x40c;" horiz-adv-x="500" 
d="M132 0h-65v750h65v-375l273 375h75l-222 -303l233 -447h-70l-205 394l-84 -110v-284zM239 804h-51l111 139h78z" />
    <glyph glyph-name="c142" horiz-adv-x="648" 
d="M255 359v-359h-65v692h-170v58h405v-58h-170v-275q40 26 77 39q52 19 107 19q63 0 107 -44t44 -112v-319h-65v305q0 114 -102 114q-45 0 -91 -18q-40 -15 -77 -42z" />
    <glyph glyph-name="c142" unicode="&#x40b;" horiz-adv-x="648" 
d="M255 359v-359h-65v692h-170v58h405v-58h-170v-275q40 26 77 39q52 19 107 19q63 0 107 -44t44 -112v-319h-65v305q0 114 -102 114q-45 0 -91 -18q-40 -15 -77 -42z" />
    <glyph glyph-name="c143" horiz-adv-x="556" 
d="M246 0h-178v750h65v-692h290v692h65v-750h-177v-108h-65v108z" />
    <glyph glyph-name="c143" unicode="&#x40f;" horiz-adv-x="556" 
d="M246 0h-178v750h65v-692h290v692h65v-750h-177v-108h-65v108z" />
    <glyph glyph-name="c144" 
d="M381 -56v-15q0 -34 -5 -55.5t-25 -40.5q-19 -13 -42 -17.5t-53 -4.5v54q10 0 20.5 1.5t16.5 2.5q24 8 27 34t3 43v335q0 62 -12 87q-19 39 -73 39q-39 0 -69 -22t-48 -60v-325h-58v501h-50v51h50v198h58v-198h154v-51h-154v-106q20 31 51.5 47t68.5 16q38 0 68 -10.5
t48 -37.5q16 -21 20 -49t4 -69v-348z" />
    <glyph glyph-name="c144" unicode="&#x452;" 
d="M381 -56v-15q0 -34 -5 -55.5t-25 -40.5q-19 -13 -42 -17.5t-53 -4.5v54q10 0 20.5 1.5t16.5 2.5q24 8 27 34t3 43v335q0 62 -12 87q-19 39 -73 39q-39 0 -69 -22t-48 -60v-325h-58v501h-50v51h50v198h58v-198h154v-51h-154v-106q20 31 51.5 47t68.5 16q38 0 68 -10.5
t48 -37.5q16 -21 20 -49t4 -69v-348z" />
    <glyph glyph-name="c157" horiz-adv-x="389" 
d="M120 0h-58v552h58v-260l179 260h73l-150 -206l153 -346h-61l-133 287l-61 -85v-202zM183 606h-51l111 139h78z" />
    <glyph glyph-name="c157" unicode="&#x45c;" horiz-adv-x="389" 
d="M120 0h-58v552h58v-260l179 260h73l-150 -206l153 -346h-61l-133 287l-61 -85v-202zM183 606h-51l111 139h78z" />
    <glyph glyph-name="c158" 
d="M121 501v-106q20 31 51.5 47t68.5 16q38 0 68 -10.5t48 -37.5q16 -21 20 -49t4 -69v-292h-58v281q0 62 -12 87q-19 39 -73 39q-39 0 -69 -22t-48 -60v-325h-58v501h-50v51h50v198h58v-198h154v-51h-154z" />
    <glyph glyph-name="c158" unicode="&#x45b;" 
d="M121 501v-106q20 31 51.5 47t68.5 16q38 0 68 -10.5t48 -37.5q16 -21 20 -49t4 -69v-292h-58v281q0 62 -12 87q-19 39 -73 39q-39 0 -69 -22t-48 -60v-325h-58v501h-50v51h50v198h58v-198h154v-51h-154z" />
    <glyph glyph-name="nonbreakingspace" unicode="&#xa0;" horiz-adv-x="500" 
 />
    <glyph glyph-name="exclamdown" unicode="&#xa1;" horiz-adv-x="500" 
d="M242 193l-233 557h72l190 -473l153 473h68l-213 -629q-22 -65 -46 -96q-34 -43 -86 -43l-49 3v61l37 -2q23 0 40.5 13.5t32.5 50.5zM108 917h40q7 -40 35 -60.5t70 -20.5t70 20.5t36 60.5h37q-6 -61 -45.5 -93.5t-102.5 -32.5q-60 0 -97 33t-43 93z" />
    <glyph glyph-name="exclamdown" unicode="&#x40e;" horiz-adv-x="500" 
d="M242 193l-233 557h72l190 -473l153 473h68l-213 -629q-22 -65 -46 -96q-34 -43 -86 -43l-49 3v61l37 -2q23 0 40.5 13.5t32.5 50.5zM108 917h40q7 -40 35 -60.5t70 -20.5t70 20.5t36 60.5h37q-6 -61 -45.5 -93.5t-102.5 -32.5q-60 0 -97 33t-43 93z" />
    <glyph glyph-name="cent" unicode="&#xa2;" horiz-adv-x="389" 
d="M28 -188v51h28q28 0 45 6t26.5 27.5t17.5 46.5t15 55l-143 554h61l114 -447l122 447h59l-150 -545q-20 -78 -29 -101q-23 -61 -58 -83q-13 -7 -28.5 -10.5t-29.5 -3.5t-26.5 1t-23.5 2zM53 738h40q7 -40 35 -60.5t70 -20.5t70 20.5t36 60.5h37q-6 -61 -45.5 -93.5
t-102.5 -32.5q-60 0 -97 33t-43 93z" />
    <glyph glyph-name="cent" unicode="&#x45e;" horiz-adv-x="389" 
d="M28 -188v51h28q28 0 45 6t26.5 27.5t17.5 46.5t15 55l-143 554h61l114 -447l122 447h59l-150 -545q-20 -78 -29 -101q-23 -61 -58 -83q-13 -7 -28.5 -10.5t-29.5 -3.5t-26.5 1t-23.5 2zM53 738h40q7 -40 35 -60.5t70 -20.5t70 20.5t36 60.5h37q-6 -61 -45.5 -93.5
t-102.5 -32.5q-60 0 -97 33t-43 93z" />
    <glyph glyph-name="sterling" unicode="&#xa3;" horiz-adv-x="389" 
d="M12 219h65v-16q0 -80 11 -110q19 -53 81 -53q40 0 61 24.5t21 99.5v586h65v-590q0 -84 -33 -128q-38 -50 -120 -50q-78 0 -117 56q-34 49 -34 129v52z" />
    <glyph glyph-name="sterling" unicode="&#x408;" horiz-adv-x="389" 
d="M12 219h65v-16q0 -80 11 -110q19 -53 81 -53q40 0 61 24.5t21 99.5v586h65v-590q0 -84 -33 -128q-38 -50 -120 -50q-78 0 -117 56q-34 49 -34 129v52z" />
    <glyph glyph-name="currency" unicode="&#xa4;" 
d="M1 104l39 38q-43 62 -43 133q0 76 43 136l-39 39l47 47l40 -38q59 44 138 44q68 0 132 -44l39 38l47 -47l-39 -39q43 -61 43 -140q0 -36 -10.5 -66t-32.5 -63l39 -38l-47 -48l-39 39q-62 -45 -140 -45q-35 0 -67 11.5t-63 33.5l-40 -39zM384 278q0 65 -46.5 112.5
t-111.5 47.5q-70 0 -117.5 -46.5t-47.5 -116.5q0 -66 47 -113t113 -47q67 0 115 47t48 116z" />
    <glyph glyph-name="yen" unicode="&#xa5;" 
d="M349 750v108h65v-166h-280v-692h-65v750h280z" />
    <glyph glyph-name="yen" unicode="&#x490;" 
d="M349 750v108h65v-166h-280v-692h-65v750h280z" />
    <glyph glyph-name="brokenbar" unicode="&#xa6;" horiz-adv-x="222" 
d="M85 0v300h52v-300h-52zM85 750h52v-300h-52v300z" />
    <glyph glyph-name="section" unicode="&#xa7;" 
d="M293 378l-137 99q-35 -15 -57.5 -45.5t-22.5 -68.5q0 -37 14 -58.5t47 -44.5l154 -109q34 15 56 44t22 64q0 39 -22 69q-17 23 -54 50zM260 103l-154 117q-40 30 -60 63t-20 77q0 49 27 85q22 29 69 59q-30 33 -42 59t-12 66q0 30 13 57t37 48t46 27.5t59 6.5
q73 0 115 -48t42 -121h-55q0 51 -24 85q-28 39 -78 39q-45 0 -71.5 -22t-26.5 -65q-1 -9 -1 -13q0 -35 18 -61q15 -22 49 -46l112 -76q67 -46 95 -96q21 -38 21 -83q0 -43 -28 -82q-24 -33 -66 -59q53 -47 53 -119q0 -67 -42.5 -107.5t-111.5 -40.5q-74 0 -116 47t-42 123
h54q0 -58 26.5 -91.5t75.5 -33.5q48 0 76 31q24 27 24 66q0 34 -16 60t-46 48z" />
    <glyph glyph-name="dieresis" unicode="&#xa8;" 
d="M412 0h-345v750h340v-58h-275v-270h250v-58h-250v-306h280v-58zM112 815v102h64v-102h-64zM270 815v102h64v-102h-64z" />
    <glyph glyph-name="dieresis" unicode="&#x401;" 
d="M412 0h-345v750h340v-58h-275v-270h250v-58h-250v-306h280v-58zM112 815v102h64v-102h-64zM270 815v102h64v-102h-64z" />
    <glyph glyph-name="copyright" unicode="&#xa9;" horiz-adv-x="800" 
d="M401 -18q-159 0 -271.5 115.5t-112.5 278.5q0 162 112.5 277.5t271.5 115.5q158 0 270 -115t112 -278t-112 -278.5t-270 -115.5zM401 29q139 0 237 101t98 246q0 143 -98 244t-237 101t-237.5 -100.5t-98.5 -244.5q0 -143 98 -245t238 -102zM540 304h55q-7 -68 -58 -110
t-119 -42q-95 0 -153.5 64.5t-58.5 162.5q0 100 56 163t153 63q70 0 119.5 -39.5t60.5 -108.5h-55q-8 46 -42.5 74t-81.5 28q-73 0 -113.5 -50.5t-40.5 -128.5q0 -74 42.5 -127.5t113.5 -53.5q46 0 81 29t41 76z" />
    <glyph glyph-name="ordfeminine" unicode="&#xaa;" horiz-adv-x="556" 
d="M492 254q0 -109 -49 -184q-58 -88 -163 -88q-99 0 -152 72q-42 57 -56 164q-9 68 -9 178q0 100 12 164q18 94 61 145q54 63 146 63q98 0 153 -69q51 -64 51 -165h-65q0 74 -32 121q-38 55 -109 55q-92 0 -128 -102q-24 -68 -24 -186h236v-58h-236q0 -140 20 -206
q36 -118 139 -118q76 0 112 72q28 56 28 142h65z" />
    <glyph glyph-name="ordfeminine" unicode="&#x404;" horiz-adv-x="556" 
d="M492 254q0 -109 -49 -184q-58 -88 -163 -88q-99 0 -152 72q-42 57 -56 164q-9 68 -9 178q0 100 12 164q18 94 61 145q54 63 146 63q98 0 153 -69q51 -64 51 -165h-65q0 74 -32 121q-38 55 -109 55q-92 0 -128 -102q-24 -68 -24 -186h236v-58h-236q0 -140 20 -206
q36 -118 139 -118q76 0 112 72q28 56 28 142h65z" />
    <glyph glyph-name="guillemotleft" unicode="&#xab;" horiz-adv-x="500" 
d="M224 130l-141 106v70l141 106v-60l-101 -81l101 -79v-62zM411 130l-141 106v70l141 106v-60l-102 -81l102 -79v-62z" />
    <glyph glyph-name="logicalnot" unicode="&#xac;" 
d="M21 360h403v-267h-51v216h-352v51z" />
    <glyph glyph-name="minus" unicode="&#xad;" horiz-adv-x="333" 
d="M19 690h296v-45h-296v45z" />
    <glyph glyph-name="registered" unicode="&#xae;" horiz-adv-x="800" 
d="M401 -18q-159 0 -271.5 115.5t-112.5 278.5q0 162 112.5 277.5t271.5 115.5q158 0 270 -115t112 -278t-112 -278.5t-270 -115.5zM401 29q139 0 237 101t98 246q0 143 -98 244t-237 101t-237.5 -100.5t-98.5 -244.5q0 -143 98 -245t238 -102zM462 359l129 -203h-62
l-122 203h-96v-203h-52v440h186q35 0 58 -4t46 -18t35.5 -39.5t12.5 -55.5q0 -61 -39 -92q-35 -28 -96 -28zM311 401h80h31q57 0 82 11q40 18 40 68q0 46 -35 63q-26 13 -76 13h-122v-155z" />
    <glyph glyph-name="macron" unicode="&#xaf;" horiz-adv-x="222" 
d="M144 0h-65v750h65v-750zM1 815v102h64v-102h-64zM159 815v102h64v-102h-64z" />
    <glyph glyph-name="macron" unicode="&#x407;" horiz-adv-x="222" 
d="M144 0h-65v750h65v-750zM1 815v102h64v-102h-64zM159 815v102h64v-102h-64z" />
    <glyph glyph-name="degree" unicode="&#xb0;" horiz-adv-x="400" 
d="M350 594q0 -62 -44 -106t-106 -44t-106 44t-44 106t44 106t106 44t106 -44t44 -106zM310 594q0 45 -32.5 77.5t-78.5 32.5q-45 0 -77 -32t-32 -78t32 -78t78 -32q45 0 77.5 32.5t32.5 77.5z" />
    <glyph glyph-name="plusminus" unicode="&#xb1;" 
d="M197 270h-176v51h176v169h51v-169h176v-51h-176v-170h-51v170zM424 51v-51h-403v51h403z" />
    <glyph glyph-name="twosuperior" unicode="&#xb2;" horiz-adv-x="222" 
d="M144 0h-65v750h65v-750z" />
    <glyph glyph-name="twosuperior" unicode="&#x406;" horiz-adv-x="222" 
d="M144 0h-65v750h65v-750z" />
    <glyph glyph-name="threesuperior" unicode="&#xb3;" horiz-adv-x="222" 
d="M140 0h-58v552h58v-552zM145 655h-67v95h67v-95z" />
    <glyph glyph-name="threesuperior" unicode="&#x456;" horiz-adv-x="222" 
d="M140 0h-58v552h58v-552zM145 655h-67v95h67v-95z" />
    <glyph glyph-name="acute" unicode="&#xb4;" horiz-adv-x="360" 
d="M324 500h-201v-500h-57v552h201v108h57v-160z" />
    <glyph glyph-name="acute" unicode="&#x491;" horiz-adv-x="360" 
d="M324 500h-201v-500h-57v552h201v108h57v-160z" />
    <glyph glyph-name="mu" unicode="&#xb5;" 
d="M321 132v420h58v-552h-56v51q-27 -35 -61.5 -50t-79.5 -15q-20 0 -35.5 6.5t-28.5 17.5v-199h-58v741h58v-418q0 -53 22 -75t75 -22q32 0 62 29t44 66z" />
    <glyph glyph-name="paragraph" unicode="&#xb6;" horiz-adv-x="564" 
d="M229 -116v482q-75 0 -125.5 55.5t-50.5 134.5q0 100 57 149q52 45 150 45h183v-866h-58v799h-98v-799h-58z" />
    <glyph glyph-name="periodcentered" unicode="&#xb7;" horiz-adv-x="222" 
d="M146 201h-69v88h69v-88z" />
    <glyph glyph-name="periodcentered" unicode="&#x2219;" horiz-adv-x="222" 
d="M146 201h-69v88h69v-88z" />
    <glyph glyph-name="cedilla" unicode="&#xb8;" horiz-adv-x="389" 
d="M352 335v-56h-259v-34q0 -88 15 -134q24 -74 89 -74q56 0 79 46q18 35 18 97h56q0 -85 -34 -135q-40 -59 -120 -59q-101 0 -138 101q-23 63 -23 187t22 187q37 105 137 105q87 0 127 -76q31 -59 31 -155zM93 330h201q0 76 -15 118q-24 67 -86 67q-59 0 -84 -68
q-16 -44 -16 -117zM84 617v102h64v-102h-64zM242 617v102h64v-102h-64z" />
    <glyph glyph-name="cedilla" unicode="&#x451;" horiz-adv-x="389" 
d="M352 335v-56h-259v-34q0 -88 15 -134q24 -74 89 -74q56 0 79 46q18 35 18 97h56q0 -85 -34 -135q-40 -59 -120 -59q-101 0 -138 101q-23 63 -23 187t22 187q37 105 137 105q87 0 127 -76q31 -59 31 -155zM93 330h201q0 76 -15 118q-24 67 -86 67q-59 0 -84 -68
q-16 -44 -16 -117zM84 617v102h64v-102h-64zM242 617v102h64v-102h-64z" />
    <glyph glyph-name="onesuperior" unicode="&#xb9;" horiz-adv-x="833" 
d="M147 750l276 -644l2 644h65v-750h-79l-278 642l-2 -642h-65v750h81zM690 768q66 0 93 -56q19 -40 19 -115q0 -77 -19 -116q-27 -56 -95 -56q-71 0 -96 57q-17 39 -17 122q0 73 21 112q28 52 94 52zM685 737q-48 0 -63 -63q-7 -30 -7 -101q0 -47 8 -70q12 -36 48 -47
q5 -1 15 -1q49 0 65 46q10 29 10 96q0 64 -9 91q-17 49 -67 49zM588 364h192v-31h-192v31z" />
    <glyph glyph-name="onesuperior" unicode="&#x2116;" horiz-adv-x="833" 
d="M147 750l276 -644l2 644h65v-750h-79l-278 642l-2 -642h-65v750h81zM690 768q66 0 93 -56q19 -40 19 -115q0 -77 -19 -116q-27 -56 -95 -56q-71 0 -96 57q-17 39 -17 122q0 73 21 112q28 52 94 52zM685 737q-48 0 -63 -63q-7 -30 -7 -101q0 -47 8 -70q12 -36 48 -47
q5 -1 15 -1q49 0 65 46q10 29 10 96q0 64 -9 91q-17 49 -67 49zM588 364h192v-31h-192v31z" />
    <glyph glyph-name="ordmasculine" unicode="&#xba;" horiz-adv-x="389" 
d="M359 183q0 -86 -33 -137q-39 -60 -120 -60q-75 0 -115 48q-33 39 -45 114q-8 50 -8 131q0 124 25 188q39 99 141 99q70 0 112 -54q38 -49 38 -123h-57q0 53 -26 89.5t-71 36.5q-61 0 -86 -68q-18 -49 -18 -133h171v-51h-171q0 -95 14 -142q25 -84 97 -84q53 0 75 49
q12 28 19 97h58z" />
    <glyph glyph-name="ordmasculine" unicode="&#x454;" horiz-adv-x="389" 
d="M359 183q0 -86 -33 -137q-39 -60 -120 -60q-75 0 -115 48q-33 39 -45 114q-8 50 -8 131q0 124 25 188q39 99 141 99q70 0 112 -54q38 -49 38 -123h-57q0 53 -26 89.5t-71 36.5q-61 0 -86 -68q-18 -49 -18 -133h171v-51h-171q0 -95 14 -142q25 -84 97 -84q53 0 75 49
q12 28 19 97h58z" />
    <glyph glyph-name="guillemotright" unicode="&#xbb;" horiz-adv-x="500" 
d="M276 352v60l141 -106v-70l-141 -106v62l101 79zM89 412l141 -106v-70l-141 -106v62l102 79l-102 81v60z" />
    <glyph glyph-name="onequarter" unicode="&#xbc;" horiz-adv-x="222" 
d="M21 -189v54q10 0 20.5 1.5t16.5 2.5q24 8 27 34t3 43v606h58v-608v-15q0 -34 -5 -55.5t-25 -40.5q-19 -13 -42 -17.5t-53 -4.5zM83 750h67v-92h-67v92z" />
    <glyph glyph-name="onequarter" unicode="&#x458;" horiz-adv-x="222" 
d="M21 -189v54q10 0 20.5 1.5t16.5 2.5q24 8 27 34t3 43v606h58v-608v-15q0 -34 -5 -55.5t-25 -40.5q-19 -13 -42 -17.5t-53 -4.5zM83 750h67v-92h-67v92z" />
    <glyph glyph-name="onehalf" unicode="&#xbd;" horiz-adv-x="500" 
d="M211 433l58 -24q103 -43 137 -74q55 -50 55 -142q0 -97 -58 -154t-157 -57t-152.5 63.5t-53.5 166.5h64q0 -78 31 -121q36 -51 110 -51q69 0 110 40t41 111q0 75 -51 112q-20 15 -117 53q-87 34 -124 72q-49 50 -49 133q0 93 52 150t143 57q87 0 139 -55t52 -144h-63
q0 64 -33.5 102.5t-95.5 38.5t-95.5 -40.5t-33.5 -104.5q0 -55 19.5 -82t71.5 -50z" />
    <glyph glyph-name="onehalf" unicode="&#x405;" horiz-adv-x="500" 
d="M211 433l58 -24q103 -43 137 -74q55 -50 55 -142q0 -97 -58 -154t-157 -57t-152.5 63.5t-53.5 166.5h64q0 -78 31 -121q36 -51 110 -51q69 0 110 40t41 111q0 75 -51 112q-20 15 -117 53q-87 34 -124 72q-49 50 -49 133q0 93 52 150t143 57q87 0 139 -55t52 -144h-63
q0 64 -33.5 102.5t-95.5 38.5t-95.5 -40.5t-33.5 -104.5q0 -55 19.5 -82t71.5 -50z" />
    <glyph glyph-name="threequarters" unicode="&#xbe;" horiz-adv-x="389" 
d="M44 407q-1 15 -1 23q0 65 36.5 100.5t106.5 35.5q71 0 110.5 -41.5t39.5 -113.5h-57q0 46 -25 75t-70 29q-40 0 -61 -23t-21 -65q0 -31 19 -53q16 -18 48 -31q92 -42 127 -75q54 -50 54 -130q0 -73 -41.5 -112.5t-115.5 -39.5q-81 0 -121 41.5t-40 122.5h59
q0 -53 26.5 -83t79.5 -30q44 0 69.5 29.5t25.5 74.5q0 60 -64 100q-60 31 -120 63q-64 41 -64 103z" />
    <glyph glyph-name="threequarters" unicode="&#x455;" horiz-adv-x="389" 
d="M44 407q-1 15 -1 23q0 65 36.5 100.5t106.5 35.5q71 0 110.5 -41.5t39.5 -113.5h-57q0 46 -25 75t-70 29q-40 0 -61 -23t-21 -65q0 -31 19 -53q16 -18 48 -31q92 -42 127 -75q54 -50 54 -130q0 -73 -41.5 -112.5t-115.5 -39.5q-81 0 -121 41.5t-40 122.5h59
q0 -53 26.5 -83t79.5 -30q44 0 69.5 29.5t25.5 74.5q0 60 -64 100q-60 31 -120 63q-64 41 -64 103z" />
    <glyph glyph-name="questiondown" unicode="&#xbf;" horiz-adv-x="200" 
d="M129 0h-58v552h58v-552zM-10 617v102h64v-102h-64zM148 617v102h64v-102h-64z" />
    <glyph glyph-name="questiondown" unicode="&#x457;" horiz-adv-x="200" 
d="M129 0h-58v552h58v-552zM-10 617v102h64v-102h-64zM148 617v102h64v-102h-64z" />
    <glyph glyph-name="Agrave" unicode="&#xc0;" horiz-adv-x="500" 
d="M150 289h200l-99 379zM213 750h75l201 -750h-66l-59 231h-228l-61 -231h-63z" />
    <glyph glyph-name="Agrave" unicode="&#x410;" horiz-adv-x="500" 
d="M150 289h200l-99 379zM213 750h75l201 -750h-66l-59 231h-228l-61 -231h-63z" />
    <glyph glyph-name="Aacute" unicode="&#xc1;" horiz-adv-x="500" 
d="M134 364v-306h57q104 0 147 26q58 35 58 131q0 83 -43 118q-39 31 -122 31h-97zM414 750v-58h-280v-270h69q135 0 193 -41q65 -46 65 -160q0 -59 -14.5 -99.5t-48.5 -68.5q-24 -21 -65 -35q-52 -18 -98 -18h-166v750h345z" />
    <glyph glyph-name="Aacute" unicode="&#x411;" horiz-adv-x="500" 
d="M134 364v-306h57q104 0 147 26q58 35 58 131q0 83 -43 118q-39 31 -122 31h-97zM414 750v-58h-280v-270h69q135 0 193 -41q65 -46 65 -160q0 -59 -14.5 -99.5t-48.5 -68.5q-24 -21 -65 -35q-52 -18 -98 -18h-166v750h345z" />
    <glyph glyph-name="Acircumflex" unicode="&#xc2;" horiz-adv-x="500" 
d="M195 364h-68v-306h81q93 0 134 31q47 36 47 128t-56 124q-40 23 -138 23zM127 422h67q89 0 127 26q47 32 47 117q0 80 -53 108q-37 19 -127 19h-61v-270zM165 0h-103v750h164q47 0 85 -8t66.5 -33.5t42 -61.5t13.5 -80q0 -60 -23 -103q-26 -48 -79 -68q63 -17 93 -64
t30 -116q0 -131 -83 -179q-63 -37 -206 -37z" />
    <glyph glyph-name="Acircumflex" unicode="&#x412;" horiz-adv-x="500" 
d="M195 364h-68v-306h81q93 0 134 31q47 36 47 128t-56 124q-40 23 -138 23zM127 422h67q89 0 127 26q47 32 47 117q0 80 -53 108q-37 19 -127 19h-61v-270zM165 0h-103v750h164q47 0 85 -8t66.5 -33.5t42 -61.5t13.5 -80q0 -60 -23 -103q-26 -48 -79 -68q63 -17 93 -64
t30 -116q0 -131 -83 -179q-63 -37 -206 -37z" />
    <glyph glyph-name="Atilde" unicode="&#xc3;" 
d="M134 0h-65v750h345v-58h-280v-692z" />
    <glyph glyph-name="Atilde" unicode="&#x413;" 
d="M134 0h-65v750h345v-58h-280v-692z" />
    <glyph glyph-name="Adieresis" unicode="&#xc4;" horiz-adv-x="556" 
d="M62 58q28 19 38.5 71t10.5 141v480h377v-692h47v-166h-65v108h-388v-108h-65v166h45zM423 58v634h-247v-432q0 -66 -8 -117.5t-30 -84.5h285z" />
    <glyph glyph-name="Adieresis" unicode="&#x414;" horiz-adv-x="556" 
d="M62 58q28 19 38.5 71t10.5 141v480h377v-692h47v-166h-65v108h-388v-108h-65v166h45zM423 58v634h-247v-432q0 -66 -8 -117.5t-30 -84.5h285z" />
    <glyph glyph-name="Aring" unicode="&#xc5;" 
d="M412 0h-345v750h340v-58h-275v-270h250v-58h-250v-306h280v-58z" />
    <glyph glyph-name="Aring" unicode="&#x415;" 
d="M412 0h-345v750h340v-58h-275v-270h250v-58h-250v-306h280v-58z" />
    <glyph glyph-name="AE" unicode="&#xc6;" horiz-adv-x="795" 
d="M430 750v-375l273 375h75l-222 -303l233 -447h-70l-205 394l-84 -110v-284h-65v284l-84 110l-205 -394h-70l233 447l-222 303h75l273 -375v375h65z" />
    <glyph glyph-name="AE" unicode="&#x416;" horiz-adv-x="795" 
d="M430 750v-375l273 375h75l-222 -303l233 -447h-70l-205 394l-84 -110v-284h-65v284l-84 110l-205 -394h-70l233 447l-222 303h75l273 -375v375h65z" />
    <glyph glyph-name="Ccedilla" unicode="&#xc7;" horiz-adv-x="500" 
d="M225 364h-47v55h21q81 0 127 40t46 115q0 57 -32 96q-35 43 -94 43q-60 0 -95 -50q-29 -41 -34 -102h-62q0 85 47 143q52 64 138 64q91 0 145.5 -56.5t54.5 -142.5q0 -43 -17 -81q-29 -63 -98 -91q71 -25 106 -83q29 -48 29 -113q0 -104 -58.5 -160.5t-153.5 -56.5
q-93 0 -146 47q-64 57 -64 168h65q0 -68 34 -111q39 -49 109 -49q68 0 109 51q37 46 37 113q0 58 -34 102q-45 59 -133 59z" />
    <glyph glyph-name="Ccedilla" unicode="&#x417;" horiz-adv-x="500" 
d="M225 364h-47v55h21q81 0 127 40t46 115q0 57 -32 96q-35 43 -94 43q-60 0 -95 -50q-29 -41 -34 -102h-62q0 85 47 143q52 64 138 64q91 0 145.5 -56.5t54.5 -142.5q0 -43 -17 -81q-29 -63 -98 -91q71 -25 106 -83q29 -48 29 -113q0 -104 -58.5 -160.5t-153.5 -56.5
q-93 0 -146 47q-64 57 -64 168h65q0 -68 34 -111q39 -49 109 -49q68 0 109 51q37 46 37 113q0 58 -34 102q-45 59 -133 59z" />
    <glyph glyph-name="Egrave" unicode="&#xc8;" horiz-adv-x="556" 
d="M409 750h81v-750h-65v642l-280 -642h-79v750h65v-644z" />
    <glyph glyph-name="Egrave" unicode="&#x418;" horiz-adv-x="556" 
d="M409 750h81v-750h-65v642l-280 -642h-79v750h65v-644z" />
    <glyph glyph-name="Eacute" unicode="&#xc9;" horiz-adv-x="556" 
d="M409 750h81v-750h-65v642l-280 -642h-79v750h65v-644zM136 917h40q7 -40 35 -60.5t70 -20.5t70 20.5t36 60.5h37q-6 -61 -45.5 -93.5t-102.5 -32.5q-60 0 -97 33t-43 93z" />
    <glyph glyph-name="Eacute" unicode="&#x419;" horiz-adv-x="556" 
d="M409 750h81v-750h-65v642l-280 -642h-79v750h65v-644zM136 917h40q7 -40 35 -60.5t70 -20.5t70 20.5t36 60.5h37q-6 -61 -45.5 -93.5t-102.5 -32.5q-60 0 -97 33t-43 93z" />
    <glyph glyph-name="Ecircumflex" unicode="&#xca;" horiz-adv-x="500" 
d="M132 0h-65v750h65v-375l273 375h75l-222 -303l233 -447h-70l-205 394l-84 -110v-284z" />
    <glyph glyph-name="Ecircumflex" unicode="&#x41a;" horiz-adv-x="500" 
d="M132 0h-65v750h65v-375l273 375h75l-222 -303l233 -447h-70l-205 394l-84 -110v-284z" />
    <glyph glyph-name="Edieresis" unicode="&#xcb;" horiz-adv-x="556" 
d="M176 692v-432q0 -176 -35 -227t-113 -51v64q56 0 72 58q11 40 11 166v480h377v-750h-65v692h-247z" />
    <glyph glyph-name="Edieresis" unicode="&#x41b;" horiz-adv-x="556" 
d="M176 692v-432q0 -176 -35 -227t-113 -51v64q56 0 72 58q11 40 11 166v480h377v-750h-65v692h-247z" />
    <glyph glyph-name="Igrave" unicode="&#xcc;" horiz-adv-x="722" 
d="M138 0h-65v750h109l178 -654l184 654h106v-750h-65v685l-188 -685h-69l-188 685z" />
    <glyph glyph-name="Igrave" unicode="&#x41c;" horiz-adv-x="722" 
d="M138 0h-65v750h109l178 -654l184 654h106v-750h-65v685l-188 -685h-69l-188 685z" />
    <glyph glyph-name="Iacute" unicode="&#xcd;" horiz-adv-x="556" 
d="M133 0h-65v750h65v-319h290v319h65v-750h-65v373h-290v-373z" />
    <glyph glyph-name="Iacute" unicode="&#x41d;" horiz-adv-x="556" 
d="M133 0h-65v750h65v-319h290v319h65v-750h-65v373h-290v-373z" />
    <glyph glyph-name="Icircumflex" unicode="&#xce;" horiz-adv-x="556" 
d="M276 -18q-100 0 -153 72q-43 58 -57 164q-8 60 -8 178q0 101 12 164q18 93 62 145q54 63 146 63q102 0 155 -69q42 -55 57 -161q9 -65 9 -179q0 -112 -10 -170q-16 -96 -60 -146q-53 -61 -153 -61zM282 40q80 0 116 74.5t36 259.5q0 141 -19 209q-36 127 -140 127
q-97 0 -132 -124q-20 -72 -20 -205q0 -150 17 -213q34 -128 142 -128z" />
    <glyph glyph-name="Icircumflex" unicode="&#x41e;" horiz-adv-x="556" 
d="M276 -18q-100 0 -153 72q-43 58 -57 164q-8 60 -8 178q0 101 12 164q18 93 62 145q54 63 146 63q102 0 155 -69q42 -55 57 -161q9 -65 9 -179q0 -112 -10 -170q-16 -96 -60 -146q-53 -61 -153 -61zM282 40q80 0 116 74.5t36 259.5q0 141 -19 209q-36 127 -140 127
q-97 0 -132 -124q-20 -72 -20 -205q0 -150 17 -213q34 -128 142 -128z" />
    <glyph glyph-name="Idieresis" unicode="&#xcf;" horiz-adv-x="556" 
d="M133 0h-65v750h420v-750h-65v692h-290v-692z" />
    <glyph glyph-name="Idieresis" unicode="&#x41f;" horiz-adv-x="556" 
d="M133 0h-65v750h420v-750h-65v692h-290v-692z" />
    <glyph glyph-name="Eth" unicode="&#xd0;" horiz-adv-x="500" 
d="M141 0h-65v750h133q133 0 190 -40q63 -44 63 -156q0 -55 -14.5 -96t-46 -67.5t-87.5 -40.5q-43 -11 -74 -11h-99v-339zM141 692v-295h56q101 0 143 25q57 34 57 126q0 81 -42 115q-36 29 -119 29h-95z" />
    <glyph glyph-name="Eth" unicode="&#x420;" horiz-adv-x="500" 
d="M141 0h-65v750h133q133 0 190 -40q63 -44 63 -156q0 -55 -14.5 -96t-46 -67.5t-87.5 -40.5q-43 -11 -74 -11h-99v-339zM141 692v-295h56q101 0 143 25q57 34 57 126q0 81 -42 115q-36 29 -119 29h-95z" />
    <glyph glyph-name="Ntilde" unicode="&#xd1;" horiz-adv-x="556" 
d="M427 254h65q0 -109 -49 -184q-58 -88 -163 -88q-99 0 -152 72q-42 57 -56 164q-9 68 -9 178q0 100 12 164q18 94 61 145q54 63 146 63q98 0 153 -69q51 -64 51 -165h-65q0 74 -32 121q-38 55 -109 55q-102 0 -135 -126q-17 -65 -17 -203q0 -150 17 -213q34 -128 142 -128
q76 0 112 72q28 56 28 142z" />
    <glyph glyph-name="Ntilde" unicode="&#x421;" horiz-adv-x="556" 
d="M427 254h65q0 -109 -49 -184q-58 -88 -163 -88q-99 0 -152 72q-42 57 -56 164q-9 68 -9 178q0 100 12 164q18 94 61 145q54 63 146 63q98 0 153 -69q51 -64 51 -165h-65q0 74 -32 121q-38 55 -109 55q-102 0 -135 -126q-17 -65 -17 -203q0 -150 17 -213q34 -128 142 -128
q76 0 112 72q28 56 28 142z" />
    <glyph glyph-name="Ograve" unicode="&#xd2;" 
d="M190 692h-170v58h405v-58h-170v-692h-65v692z" />
    <glyph glyph-name="Ograve" unicode="&#x422;" 
d="M190 692h-170v58h405v-58h-170v-692h-65v692z" />
    <glyph glyph-name="Oacute" unicode="&#xd3;" horiz-adv-x="500" 
d="M242 193l-233 557h72l190 -473l153 473h68l-213 -629q-22 -65 -46 -96q-34 -43 -86 -43l-49 3v61l37 -2q23 0 40.5 13.5t32.5 50.5z" />
    <glyph glyph-name="Oacute" unicode="&#x423;" horiz-adv-x="500" 
d="M242 193l-233 557h72l190 -473l153 473h68l-213 -629q-22 -65 -46 -96q-34 -43 -86 -43l-49 3v61l37 -2q23 0 40.5 13.5t32.5 50.5z" />
    <glyph glyph-name="Ocircumflex" unicode="&#xd4;" horiz-adv-x="722" 
d="M329 573h-62q-76 0 -120 -53t-44 -141q0 -97 58 -151q54 -50 145 -50h23v395zM394 573v-395h23q91 0 145 50q58 53 58 151q0 88 -43.5 141t-120.5 53h-62zM394 750v-120h35q125 0 190.5 -64.5t65.5 -181.5q0 -119 -72 -194q-68 -71 -168 -71h-51v-119h-65v119h-51
q-99 0 -168 71q-72 74 -72 194q0 118 65 182t191 64h35v120h65z" />
    <glyph glyph-name="Ocircumflex" unicode="&#x424;" horiz-adv-x="722" 
d="M329 573h-62q-76 0 -120 -53t-44 -141q0 -97 58 -151q54 -50 145 -50h23v395zM394 573v-395h23q91 0 145 50q58 53 58 151q0 88 -43.5 141t-120.5 53h-62zM394 750v-120h35q125 0 190.5 -64.5t65.5 -181.5q0 -119 -72 -194q-68 -71 -168 -71h-51v-119h-65v119h-51
q-99 0 -168 71q-72 74 -72 194q0 118 65 182t191 64h35v120h65z" />
    <glyph glyph-name="Otilde" unicode="&#xd5;" horiz-adv-x="500" 
d="M211 387l-184 363h73l149 -301l153 301h72l-186 -363l194 -387h-71l-162 326l-161 -326h-70z" />
    <glyph glyph-name="Otilde" unicode="&#x425;" horiz-adv-x="500" 
d="M211 387l-184 363h73l149 -301l153 301h72l-186 -363l194 -387h-71l-162 326l-161 -326h-70z" />
    <glyph glyph-name="Odieresis" unicode="&#xd6;" horiz-adv-x="556" 
d="M470 0h-402v750h65v-692h290v692h65v-692h47v-166h-65v108z" />
    <glyph glyph-name="Odieresis" unicode="&#x426;" horiz-adv-x="556" 
d="M470 0h-402v750h65v-692h290v692h65v-692h47v-166h-65v108z" />
    <glyph glyph-name="multiply" unicode="&#xd7;" horiz-adv-x="518" 
d="M452 0h-65v373q-49 -30 -83 -42q-50 -18 -106 -18q-63 0 -104.5 44.5t-41.5 113.5v279h65v-263q0 -110 102 -110q46 0 89.5 14.5t78.5 39.5v319h65v-750z" />
    <glyph glyph-name="multiply" unicode="&#x427;" horiz-adv-x="518" 
d="M452 0h-65v373q-49 -30 -83 -42q-50 -18 -106 -18q-63 0 -104.5 44.5t-41.5 113.5v279h65v-263q0 -110 102 -110q46 0 89.5 14.5t78.5 39.5v319h65v-750z" />
    <glyph glyph-name="Oslash" unicode="&#xd8;" horiz-adv-x="722" 
d="M68 0v750h65v-692h195v692h65v-692h195v692h65l-1 -750h-584z" />
    <glyph glyph-name="Oslash" unicode="&#x428;" horiz-adv-x="722" 
d="M68 0v750h65v-692h195v692h65v-692h195v692h65l-1 -750h-584z" />
    <glyph glyph-name="Ugrave" unicode="&#xd9;" horiz-adv-x="722" 
d="M635 0h-567v750h65v-692h195v692h65v-692h195v692h65v-692h47v-166h-65v108z" />
    <glyph glyph-name="Ugrave" unicode="&#x429;" horiz-adv-x="722" 
d="M635 0h-567v750h65v-692h195v692h65v-692h195v692h65v-692h47v-166h-65v108z" />
    <glyph glyph-name="Uacute" unicode="&#xda;" horiz-adv-x="556" 
d="M190 364v-306h57q104 0 147 26q58 35 58 131q0 83 -43 118q-39 31 -122 31h-97zM125 692h-105v58h170v-328h69q135 0 193 -41q65 -46 65 -160q0 -59 -14.5 -99.5t-48.5 -68.5q-24 -21 -65 -35q-52 -18 -98 -18h-166v692z" />
    <glyph glyph-name="Uacute" unicode="&#x42a;" horiz-adv-x="556" 
d="M190 364v-306h57q104 0 147 26q58 35 58 131q0 83 -43 118q-39 31 -122 31h-97zM125 692h-105v58h170v-328h69q135 0 193 -41q65 -46 65 -160q0 -59 -14.5 -99.5t-48.5 -68.5q-24 -21 -65 -35q-52 -18 -98 -18h-166v692z" />
    <glyph glyph-name="Ucircumflex" unicode="&#xdb;" horiz-adv-x="685" 
d="M69 0v750h65v-328h69q135 0 193 -41q65 -46 65 -160q0 -59 -14.5 -99.5t-48.5 -68.5q-24 -21 -65 -35q-52 -18 -98 -18h-166zM134 364v-306h57q104 0 147 26q58 35 58 131q0 83 -43 118q-39 31 -122 31h-97zM617 0h-65v750h65v-750z" />
    <glyph glyph-name="Ucircumflex" unicode="&#x42b;" horiz-adv-x="685" 
d="M69 0v750h65v-328h69q135 0 193 -41q65 -46 65 -160q0 -59 -14.5 -99.5t-48.5 -68.5q-24 -21 -65 -35q-52 -18 -98 -18h-166zM134 364v-306h57q104 0 147 26q58 35 58 131q0 83 -43 118q-39 31 -122 31h-97zM617 0h-65v750h65v-750z" />
    <glyph glyph-name="Udieresis" unicode="&#xdc;" horiz-adv-x="500" 
d="M69 0v750h65v-328h69q135 0 193 -41q65 -46 65 -160q0 -59 -14.5 -99.5t-48.5 -68.5q-24 -21 -65 -35q-52 -18 -98 -18h-166zM134 364v-306h57q104 0 147 26q58 35 58 131q0 83 -43 118q-39 31 -122 31h-97z" />
    <glyph glyph-name="Udieresis" unicode="&#x42c;" horiz-adv-x="500" 
d="M69 0v750h65v-328h69q135 0 193 -41q65 -46 65 -160q0 -59 -14.5 -99.5t-48.5 -68.5q-24 -21 -65 -35q-52 -18 -98 -18h-166zM134 364v-306h57q104 0 147 26q58 35 58 131q0 83 -43 118q-39 31 -122 31h-97z" />
    <glyph glyph-name="Yacute" unicode="&#xdd;" horiz-adv-x="556" 
d="M428 422q0 120 -23 185q-36 103 -129 103q-71 0 -108 -54q-33 -48 -33 -122h-65q0 101 51 165q55 69 153 69q132 0 184 -128q35 -86 35 -244q0 -117 -8 -178q-14 -107 -56 -164q-53 -72 -153 -72q-104 0 -162 88q-50 76 -50 184h65q0 -85 28 -141q37 -73 112 -73
q72 0 111 57q30 45 41 129q7 55 7 138h-236v58h236z" />
    <glyph glyph-name="Yacute" unicode="&#x42d;" horiz-adv-x="556" 
d="M428 422q0 120 -23 185q-36 103 -129 103q-71 0 -108 -54q-33 -48 -33 -122h-65q0 101 51 165q55 69 153 69q132 0 184 -128q35 -86 35 -244q0 -117 -8 -178q-14 -107 -56 -164q-53 -72 -153 -72q-104 0 -162 88q-50 76 -50 184h65q0 -85 28 -141q37 -73 112 -73
q72 0 111 57q30 45 41 129q7 55 7 138h-236v58h236z" />
    <glyph glyph-name="Thorn" unicode="&#xde;" horiz-adv-x="722" 
d="M449 40q80 0 116 74.5t36 259.5q0 141 -19 209q-36 127 -140 127q-97 0 -132 -124q-20 -72 -20 -205q0 -150 17 -213q34 -128 142 -128zM225 373h-92v-373h-65v750h65v-319h92q0 141 41 225q55 112 179 112q102 0 155 -69q42 -55 57 -161q9 -65 9 -179q0 -112 -10 -170
q-16 -96 -60 -146q-53 -61 -153 -61q-96 0 -148 65q-43 53 -59 153q-11 68 -11 173z" />
    <glyph glyph-name="Thorn" unicode="&#x42e;" horiz-adv-x="722" 
d="M449 40q80 0 116 74.5t36 259.5q0 141 -19 209q-36 127 -140 127q-97 0 -132 -124q-20 -72 -20 -205q0 -150 17 -213q34 -128 142 -128zM225 373h-92v-373h-65v750h65v-319h92q0 141 41 225q55 112 179 112q102 0 155 -69q42 -55 57 -161q9 -65 9 -179q0 -112 -10 -170
q-16 -96 -60 -146q-53 -61 -153 -61q-96 0 -148 65q-43 53 -59 153q-11 68 -11 173z" />
    <glyph glyph-name="germandbls" unicode="&#xdf;" horiz-adv-x="500" 
d="M305 353q-102 0 -134.5 -27t-32.5 -80q0 -73 -4 -120q-7 -84 -26 -126h-71v9q20 11 27 61t7 104v23q0 80 17 118q22 50 83 65q-55 13 -82.5 65t-27.5 113q0 107 64 153q55 39 167 39h145v-750h-65v353h-67zM372 692h-94q-80 0 -114 -28q-38 -32 -38 -111q0 -85 57 -121
q34 -21 75 -21h114v281z" />
    <glyph glyph-name="germandbls" unicode="&#x42f;" horiz-adv-x="500" 
d="M305 353q-102 0 -134.5 -27t-32.5 -80q0 -73 -4 -120q-7 -84 -26 -126h-71v9q20 11 27 61t7 104v23q0 80 17 118q22 50 83 65q-55 13 -82.5 65t-27.5 113q0 107 64 153q55 39 167 39h145v-750h-65v353h-67zM372 692h-94q-80 0 -114 -28q-38 -32 -38 -111q0 -85 57 -121
q34 -21 75 -21h114v281z" />
    <glyph glyph-name="agrave" unicode="&#xe0;" horiz-adv-x="389" 
d="M271 201v97q-28 -15 -71 -32.5t-44 -18.5q-44 -19 -58 -41.5t-14 -72.5q0 -44 17.5 -70t59.5 -26q28 0 48.5 10.5t35 32.5t20.5 52.5t6 68.5zM97 413h-56q0 74 37.5 113.5t109.5 39.5q37 0 66.5 -10t47 -32t22.5 -46.5t5 -61.5v-339q0 -25 7 -31t33 -6v-42q-8 -4 -16 -5
t-20 -1q-14 0 -28 3q-19 7 -25 25q-1 3 -6 25q-22 -29 -54 -44t-69 -15q-70 0 -100 45q-25 38 -25 111q0 51 17 85.5t59 56.5q19 9 94 38q34 13 57 24q13 6 15 18.5t2 36.5q0 16 -0.5 29.5t-3.5 29.5q-7 27 -24.5 41t-54.5 14q-54 0 -72 -32q-8 -13 -18 -70z" />
    <glyph glyph-name="agrave" unicode="&#x430;" horiz-adv-x="389" 
d="M271 201v97q-28 -15 -71 -32.5t-44 -18.5q-44 -19 -58 -41.5t-14 -72.5q0 -44 17.5 -70t59.5 -26q28 0 48.5 10.5t35 32.5t20.5 52.5t6 68.5zM97 413h-56q0 74 37.5 113.5t109.5 39.5q37 0 66.5 -10t47 -32t22.5 -46.5t5 -61.5v-339q0 -25 7 -31t33 -6v-42q-8 -4 -16 -5
t-20 -1q-14 0 -28 3q-19 7 -25 25q-1 3 -6 25q-22 -29 -54 -44t-69 -15q-70 0 -100 45q-25 38 -25 111q0 51 17 85.5t59 56.5q19 9 94 38q34 13 57 24q13 6 15 18.5t2 36.5q0 16 -0.5 29.5t-3.5 29.5q-7 27 -24.5 41t-54.5 14q-54 0 -72 -32q-8 -13 -18 -70z" />
    <glyph glyph-name="aacute" unicode="&#xe1;" 
d="M220 37q76 0 103 89q15 50 15 151q0 103 -15 151q-27 87 -106 87q-68 0 -94 -85q-16 -52 -16 -142q0 -113 11 -156q24 -95 102 -95zM219 717q62 13 84.5 24.5t22.5 33.5h47q0 -49 -29 -72.5t-101.5 -40.5t-104.5 -66q-22 -34 -32 -95q19 29 49 47t69 18q103 0 144 -98
q28 -67 28 -190q0 -128 -27 -193q-41 -99 -148 -99q-112 0 -149 104q-23 66 -23 229q0 111 10 178q14 91 48 144q40 61 112 76z" />
    <glyph glyph-name="aacute" unicode="&#x431;" 
d="M220 37q76 0 103 89q15 50 15 151q0 103 -15 151q-27 87 -106 87q-68 0 -94 -85q-16 -52 -16 -142q0 -113 11 -156q24 -95 102 -95zM219 717q62 13 84.5 24.5t22.5 33.5h47q0 -49 -29 -72.5t-101.5 -40.5t-104.5 -66q-22 -34 -32 -95q19 29 49 47t69 18q103 0 144 -98
q28 -67 28 -190q0 -128 -27 -193q-41 -99 -148 -99q-112 0 -149 104q-23 66 -23 229q0 111 10 178q14 91 48 144q40 61 112 76z" />
    <glyph glyph-name="acircumflex" unicode="&#xe2;" horiz-adv-x="402" 
d="M151 263h-33v-211h43q72 0 100 19q35 24 35 91q0 66 -42 87q-29 14 -103 14zM118 314h32q68 0 95 16q35 21 35 83q0 47 -23 67t-111 20h-28v-186zM137 0h-77v552h123q47 0 70.5 -7t43.5 -24.5t30.5 -44.5t10.5 -59q0 -45 -18 -78t-58 -48q47 -12 69.5 -47t22.5 -85
q0 -96 -62 -132q-47 -27 -155 -27z" />
    <glyph glyph-name="acircumflex" unicode="&#x432;" horiz-adv-x="402" 
d="M151 263h-33v-211h43q72 0 100 19q35 24 35 91q0 66 -42 87q-29 14 -103 14zM118 314h32q68 0 95 16q35 21 35 83q0 47 -23 67t-111 20h-28v-186zM137 0h-77v552h123q47 0 70.5 -7t43.5 -24.5t30.5 -44.5t10.5 -59q0 -45 -18 -78t-58 -48q47 -12 69.5 -47t22.5 -85
q0 -96 -62 -132q-47 -27 -155 -27z" />
    <glyph glyph-name="atilde" unicode="&#xe3;" horiz-adv-x="360" 
d="M123 0h-57v552h258v-52h-201v-500z" />
    <glyph glyph-name="atilde" unicode="&#x433;" horiz-adv-x="360" 
d="M123 0h-57v552h258v-52h-201v-500z" />
    <glyph glyph-name="adieresis" unicode="&#xe4;" 
d="M60 52q37 25 37 147v353h282v-500h35v-160h-57v108h-273v-108h-57v160h33zM321 52v448h-166v-309q0 -50 -6 -81.5t-23 -57.5h195z" />
    <glyph glyph-name="adieresis" unicode="&#x434;" 
d="M60 52q37 25 37 147v353h282v-500h35v-160h-57v108h-273v-108h-57v160h33zM321 52v448h-166v-309q0 -50 -6 -81.5t-23 -57.5h195z" />
    <glyph glyph-name="aring" unicode="&#xe5;" horiz-adv-x="389" 
d="M352 335v-56h-259v-34q0 -88 15 -134q24 -74 89 -74q56 0 79 46q18 35 18 97h56q0 -85 -34 -135q-40 -59 -120 -59q-101 0 -138 101q-23 63 -23 187t22 187q37 105 137 105q87 0 127 -76q31 -59 31 -155zM93 330h201q0 76 -15 118q-24 67 -86 67q-59 0 -84 -68
q-16 -44 -16 -117z" />
    <glyph glyph-name="aring" unicode="&#x435;" horiz-adv-x="389" 
d="M352 335v-56h-259v-34q0 -88 15 -134q24 -74 89 -74q56 0 79 46q18 35 18 97h56q0 -85 -34 -135q-40 -59 -120 -59q-101 0 -138 101q-23 63 -23 187t22 187q37 105 137 105q87 0 127 -76q31 -59 31 -155zM93 330h201q0 76 -15 118q-24 67 -86 67q-59 0 -84 -68
q-16 -44 -16 -117z" />
    <glyph glyph-name="ae" unicode="&#xe6;" horiz-adv-x="593" 
d="M326 552v-260l179 260h73l-150 -206l153 -346h-61l-133 287l-61 -85v-202h-58v202l-61 85l-133 -287h-61l153 346l-150 206h73l179 -260v260h58z" />
    <glyph glyph-name="ae" unicode="&#x436;" horiz-adv-x="593" 
d="M326 552v-260l179 260h73l-150 -206l153 -346h-61l-133 287l-61 -85v-202h-58v202l-61 85l-133 -287h-61l153 346l-150 206h73l179 -260v260h58z" />
    <glyph glyph-name="ccedilla" unicode="&#xe7;" horiz-adv-x="389" 
d="M174 263h-35v49h16q120 0 120 107q0 39 -21 66q-24 31 -64 31q-42 0 -64.5 -30t-22.5 -73h-56q0 63 35 105q39 47 104 47q68 0 108.5 -42.5t40.5 -106.5q0 -43 -22.5 -75.5t-63.5 -48.5q55 -19 80 -59q21 -34 21 -83q0 -77 -43.5 -119.5t-114.5 -42.5q-72 0 -111 34
q-47 41 -47 124h58q0 -49 24 -78.5t74 -29.5q48 0 74 32t26 81q0 43 -21 72q-29 40 -95 40z" />
    <glyph glyph-name="ccedilla" unicode="&#x437;" horiz-adv-x="389" 
d="M174 263h-35v49h16q120 0 120 107q0 39 -21 66q-24 31 -64 31q-42 0 -64.5 -30t-22.5 -73h-56q0 63 35 105q39 47 104 47q68 0 108.5 -42.5t40.5 -106.5q0 -43 -22.5 -75.5t-63.5 -48.5q55 -19 80 -59q21 -34 21 -83q0 -77 -43.5 -119.5t-114.5 -42.5q-72 0 -111 34
q-47 41 -47 124h58q0 -49 24 -78.5t74 -29.5q48 0 74 32t26 81q0 43 -21 72q-29 40 -95 40z" />
    <glyph glyph-name="egrave" unicode="&#xe8;" 
d="M307 552h74v-552h-58v454l-188 -454h-72v552h58v-455z" />
    <glyph glyph-name="egrave" unicode="&#x438;" 
d="M307 552h74v-552h-58v454l-188 -454h-72v552h58v-455z" />
    <glyph glyph-name="eacute" unicode="&#xe9;" 
d="M79 738h40q7 -40 35 -60.5t70 -20.5t70 20.5t36 60.5h37q-6 -61 -45.5 -93.5t-102.5 -32.5q-60 0 -97 33t-43 93zM307 552h74v-552h-58v454l-188 -454h-72v552h58v-455z" />
    <glyph glyph-name="eacute" unicode="&#x439;" 
d="M79 738h40q7 -40 35 -60.5t70 -20.5t70 20.5t36 60.5h37q-6 -61 -45.5 -93.5t-102.5 -32.5q-60 0 -97 33t-43 93zM307 552h74v-552h-58v454l-188 -454h-72v552h58v-455z" />
    <glyph glyph-name="ecircumflex" unicode="&#xea;" horiz-adv-x="389" 
d="M120 0h-58v552h58v-260l179 260h73l-150 -206l153 -346h-61l-133 287l-61 -85v-202z" />
    <glyph glyph-name="ecircumflex" unicode="&#x43a;" horiz-adv-x="389" 
d="M120 0h-58v552h58v-260l179 260h73l-150 -206l153 -346h-61l-133 287l-61 -85v-202z" />
    <glyph glyph-name="edieresis" unicode="&#xeb;" 
d="M155 500v-309q0 -123 -33 -167q-29 -38 -87 -38v60q40 0 51 32.5t11 120.5v353h282v-552h-58v500h-166z" />
    <glyph glyph-name="edieresis" unicode="&#x43b;" 
d="M155 500v-309q0 -123 -33 -167q-29 -38 -87 -38v60q40 0 51 32.5t11 120.5v353h282v-552h-58v500h-166z" />
    <glyph glyph-name="igrave" unicode="&#xec;" horiz-adv-x="593" 
d="M122 0h-57v552h96l135 -464l141 464h92v-552h-57v490l-148 -490h-54l-146 490z" />
    <glyph glyph-name="igrave" unicode="&#x43c;" horiz-adv-x="593" 
d="M122 0h-57v552h96l135 -464l141 464h92v-552h-57v490l-148 -490h-54l-146 490z" />
    <glyph glyph-name="iacute" unicode="&#xed;" 
d="M123 0h-58v552h58v-231h198v231h58v-552h-58v270h-198v-270z" />
    <glyph glyph-name="iacute" unicode="&#x43d;" 
d="M123 0h-58v552h58v-231h198v231h58v-552h-58v270h-198v-270z" />
    <glyph glyph-name="icircumflex" unicode="&#xee;" 
d="M221 -14q-111 0 -149 103q-23 62 -23 200q0 156 52 222q43 55 123 55q103 0 144 -98q28 -67 28 -190q0 -128 -27 -193q-41 -99 -148 -99zM220 37q76 0 103 89q15 50 15 151q0 103 -15 151q-27 87 -106 87q-68 0 -94 -85q-16 -52 -16 -142q0 -113 11 -156q24 -95 102 -95z
" />
    <glyph glyph-name="icircumflex" unicode="&#x43e;" 
d="M221 -14q-111 0 -149 103q-23 62 -23 200q0 156 52 222q43 55 123 55q103 0 144 -98q28 -67 28 -190q0 -128 -27 -193q-41 -99 -148 -99zM220 37q76 0 103 89q15 50 15 151q0 103 -15 151q-27 87 -106 87q-68 0 -94 -85q-16 -52 -16 -142q0 -113 11 -156q24 -95 102 -95z
" />
    <glyph glyph-name="idieresis" unicode="&#xef;" 
d="M123 0h-58v552h314v-552h-58v501h-198v-501z" />
    <glyph glyph-name="idieresis" unicode="&#x43f;" 
d="M123 0h-58v552h314v-552h-58v501h-198v-501z" />
    <glyph glyph-name="eth" unicode="&#xf0;" 
d="M116 279q0 -110 11 -152q24 -90 101 -90q71 0 95 89q13 48 13 145q0 99 -13 150q-24 94 -93 94q-78 0 -102 -86q-12 -44 -12 -150zM118 45v-235h-60v742h58v-50q21 30 49.5 47t62.5 17q100 0 139 -93q27 -65 27 -183q0 -136 -20 -197q-35 -107 -141 -107q-73 0 -115 59z
" />
    <glyph glyph-name="eth" unicode="&#x440;" 
d="M116 279q0 -110 11 -152q24 -90 101 -90q71 0 95 89q13 48 13 145q0 99 -13 150q-24 94 -93 94q-78 0 -102 -86q-12 -44 -12 -150zM118 45v-235h-60v742h58v-50q21 30 49.5 47t62.5 17q100 0 139 -93q27 -65 27 -183q0 -136 -20 -197q-35 -107 -141 -107q-73 0 -115 59z
" />
    <glyph glyph-name="ntilde" unicode="&#xf1;" horiz-adv-x="389" 
d="M300 183h58q0 -86 -33 -137q-39 -60 -120 -60q-75 0 -115 48q-33 39 -45 114q-8 50 -8 131q0 124 25 188q39 99 141 99q70 0 112 -54q38 -49 38 -123h-57q0 53 -26 89.5t-71 36.5q-71 0 -93 -90q-11 -45 -11 -156q0 -98 13 -145q24 -87 98 -87q53 0 75 49q12 28 19 97z
" />
    <glyph glyph-name="ntilde" unicode="&#x441;" horiz-adv-x="389" 
d="M300 183h58q0 -86 -33 -137q-39 -60 -120 -60q-75 0 -115 48q-33 39 -45 114q-8 50 -8 131q0 124 25 188q39 99 141 99q70 0 112 -54q38 -49 38 -123h-57q0 53 -26 89.5t-71 36.5q-71 0 -93 -90q-11 -45 -11 -156q0 -98 13 -145q24 -87 98 -87q53 0 75 49q12 28 19 97z
" />
    <glyph glyph-name="ograve" unicode="&#xf2;" horiz-adv-x="351" 
d="M147 500h-127v52h312v-52h-127v-500h-58v500z" />
    <glyph glyph-name="ograve" unicode="&#x442;" horiz-adv-x="351" 
d="M147 500h-127v52h312v-52h-127v-500h-58v500z" />
    <glyph glyph-name="oacute" unicode="&#xf3;" horiz-adv-x="389" 
d="M28 -188v51h28q28 0 45 6t26.5 27.5t17.5 46.5t15 55l-143 554h61l114 -447l122 447h59l-150 -545q-20 -78 -29 -101q-23 -61 -58 -83q-13 -7 -28.5 -10.5t-29.5 -3.5t-26.5 1t-23.5 2z" />
    <glyph glyph-name="oacute" unicode="&#x443;" horiz-adv-x="389" 
d="M28 -188v51h28q28 0 45 6t26.5 27.5t17.5 46.5t15 55l-143 554h61l114 -447l122 447h59l-150 -545q-20 -78 -29 -101q-23 -61 -58 -83q-13 -7 -28.5 -10.5t-29.5 -3.5t-26.5 1t-23.5 2z" />
    <glyph glyph-name="ocircumflex" unicode="&#xf4;" horiz-adv-x="704" 
d="M658 290q0 -136 -20 -197q-35 -107 -141 -107q-73 0 -115 59v-235h-60v235q-42 -59 -115 -59q-106 0 -141 107q-20 60 -20 197q0 119 26 182q39 94 140 94q34 0 62 -16.5t50 -47.5v248h56v-248q21 30 49.5 47t62.5 17q100 0 139 -93q27 -65 27 -183zM600 271
q0 99 -13 150q-24 94 -93 94q-78 0 -102 -86q-12 -44 -12 -150q0 -110 11 -152q24 -90 101 -90q71 0 95 89q13 48 13 145zM324 279q0 109 -11 149q-24 87 -103 87q-69 0 -93 -94q-13 -50 -13 -150q0 -96 13 -144q24 -90 95 -90q76 0 100 89q12 45 12 153z" />
    <glyph glyph-name="ocircumflex" unicode="&#x444;" horiz-adv-x="704" 
d="M658 290q0 -136 -20 -197q-35 -107 -141 -107q-73 0 -115 59v-235h-60v235q-42 -59 -115 -59q-106 0 -141 107q-20 60 -20 197q0 119 26 182q39 94 140 94q34 0 62 -16.5t50 -47.5v248h56v-248q21 30 49.5 47t62.5 17q100 0 139 -93q27 -65 27 -183zM600 271
q0 99 -13 150q-24 94 -93 94q-78 0 -102 -86q-12 -44 -12 -150q0 -110 11 -152q24 -90 101 -90q71 0 95 89q13 48 13 145zM324 279q0 109 -11 149q-24 87 -103 87q-69 0 -93 -94q-13 -50 -13 -150q0 -96 13 -144q24 -90 95 -90q76 0 100 89q12 45 12 153z" />
    <glyph glyph-name="otilde" unicode="&#xf5;" horiz-adv-x="389" 
d="M311 0l-118 234l-117 -234h-63l145 289l-135 263h65l105 -213l107 213h67l-138 -263l147 -289h-65z" />
    <glyph glyph-name="otilde" unicode="&#x445;" horiz-adv-x="389" 
d="M311 0l-118 234l-117 -234h-63l145 289l-135 263h65l105 -213l107 213h67l-138 -263l147 -289h-65z" />
    <glyph glyph-name="odieresis" unicode="&#xf6;" 
d="M357 0h-292v552h58v-500h198v500h58v-500h35v-160h-57v108z" />
    <glyph glyph-name="odieresis" unicode="&#x446;" 
d="M357 0h-292v552h58v-500h198v500h58v-500h35v-160h-57v108z" />
    <glyph glyph-name="divide" unicode="&#xf7;" horiz-adv-x="426" 
d="M361 0h-58v268q-35 -20 -64.5 -30.5t-68.5 -10.5q-48 0 -80.5 33.5t-32.5 85.5v206h58v-195q0 -35 18.5 -55.5t51.5 -20.5t62 9.5t56 28.5v233h58v-552z" />
    <glyph glyph-name="divide" unicode="&#x447;" horiz-adv-x="426" 
d="M361 0h-58v268q-35 -20 -64.5 -30.5t-68.5 -10.5q-48 0 -80.5 33.5t-32.5 85.5v206h58v-195q0 -35 18.5 -55.5t51.5 -20.5t62 9.5t56 28.5v233h58v-552z" />
    <glyph glyph-name="oslash" unicode="&#xf8;" horiz-adv-x="574" 
d="M65 0v552h58v-500h135v500h58v-500h135v500h58v-552h-444z" />
    <glyph glyph-name="oslash" unicode="&#x448;" horiz-adv-x="574" 
d="M65 0v552h58v-500h135v500h58v-500h135v500h58v-552h-444z" />
    <glyph glyph-name="ugrave" unicode="&#xf9;" horiz-adv-x="574" 
d="M487 0h-422v552h58v-500h135v500h58v-500h135v500h58v-500h35v-160h-57v108z" />
    <glyph glyph-name="ugrave" unicode="&#x449;" horiz-adv-x="574" 
d="M487 0h-422v552h58v-500h135v500h58v-500h135v500h58v-500h35v-160h-57v108z" />
    <glyph glyph-name="uacute" unicode="&#xfa;" 
d="M178 263v-211h24q80 0 110 16q43 23 43 93q0 60 -32 83q-27 19 -91 19h-54zM120 500h-100v52h158v-237h42q100 0 144 -31q49 -35 49 -119q0 -42 -11.5 -74t-36 -52.5t-61 -29.5t-60.5 -9h-124v500z" />
    <glyph glyph-name="uacute" unicode="&#x44a;" 
d="M178 263v-211h24q80 0 110 16q43 23 43 93q0 60 -32 83q-27 19 -91 19h-54zM120 500h-100v52h158v-237h42q100 0 144 -31q49 -35 49 -119q0 -42 -11.5 -74t-36 -52.5t-61 -29.5t-60.5 -9h-124v500z" />
    <glyph glyph-name="ucircumflex" unicode="&#xfb;" horiz-adv-x="574" 
d="M65 0v552h58v-237h42q100 0 144 -31q49 -35 49 -119q0 -42 -11.5 -74t-36 -52.5t-61 -29.5t-60.5 -9h-124zM123 263v-211h24q80 0 110 16q43 23 43 93q0 60 -32 83q-27 19 -91 19h-54zM509 0h-58v552h58v-552z" />
    <glyph glyph-name="ucircumflex" unicode="&#x44b;" horiz-adv-x="574" 
d="M65 0v552h58v-237h42q100 0 144 -31q49 -35 49 -119q0 -42 -11.5 -74t-36 -52.5t-61 -29.5t-60.5 -9h-124zM123 263v-211h24q80 0 110 16q43 23 43 93q0 60 -32 83q-27 19 -91 19h-54zM509 0h-58v552h58v-552z" />
    <glyph glyph-name="udieresis" unicode="&#xfc;" horiz-adv-x="389" 
d="M65 0v552h58v-237h42q100 0 144 -31q49 -35 49 -119q0 -42 -11.5 -74t-36 -52.5t-61 -29.5t-60.5 -9h-124zM123 263v-211h24q80 0 110 16q43 23 43 93q0 60 -32 83q-27 19 -91 19h-54z" />
    <glyph glyph-name="udieresis" unicode="&#x44c;" horiz-adv-x="389" 
d="M65 0v552h58v-237h42q100 0 144 -31q49 -35 49 -119q0 -42 -11.5 -74t-36 -52.5t-61 -29.5t-60.5 -9h-124zM123 263v-211h24q80 0 110 16q43 23 43 93q0 60 -32 83q-27 19 -91 19h-54z" />
    <glyph glyph-name="yacute" unicode="&#xfd;" horiz-adv-x="389" 
d="M294 314q0 112 -30 160q-26 41 -74 41q-45 0 -71 -36.5t-26 -89.5h-57q0 73 39.5 125t110.5 52q101 0 140 -99q26 -66 26 -188q0 -132 -23 -193q-37 -100 -145 -100q-81 0 -120 60q-33 51 -33 137h58q7 -70 18 -96q22 -50 76 -50q72 0 97 83q14 47 14 143h-171v51h171z
" />
    <glyph glyph-name="yacute" unicode="&#x44d;" horiz-adv-x="389" 
d="M294 314q0 112 -30 160q-26 41 -74 41q-45 0 -71 -36.5t-26 -89.5h-57q0 73 39.5 125t110.5 52q101 0 140 -99q26 -66 26 -188q0 -132 -23 -193q-37 -100 -145 -100q-81 0 -120 60q-33 51 -33 137h58q7 -70 18 -96q22 -50 76 -50q72 0 97 83q14 47 14 143h-171v51h171z
" />
    <glyph glyph-name="thorn" unicode="&#xfe;" horiz-adv-x="593" 
d="M369 37q76 0 103 89q15 50 15 151q0 103 -15 151q-27 87 -106 87q-68 0 -94 -85q-16 -52 -16 -142q0 -113 11 -156q24 -95 102 -95zM198 270h-75v-270h-58v552h58v-231h76q0 105 34 166q44 79 140 79q103 0 144 -98q28 -67 28 -190q0 -128 -27 -193q-41 -99 -148 -99
t-146 94q-26 62 -26 190z" />
    <glyph glyph-name="thorn" unicode="&#x44e;" horiz-adv-x="593" 
d="M369 37q76 0 103 89q15 50 15 151q0 103 -15 151q-27 87 -106 87q-68 0 -94 -85q-16 -52 -16 -142q0 -113 11 -156q24 -95 102 -95zM198 270h-75v-270h-58v552h58v-231h76q0 105 34 166q44 79 140 79q103 0 144 -98q28 -67 28 -190q0 -128 -27 -193q-41 -99 -148 -99
t-146 94q-26 62 -26 190z" />
    <glyph glyph-name="ydieresis" unicode="&#xff;" horiz-adv-x="402" 
d="M242 255q-60 0 -82 -11q-34 -17 -34 -68q0 -71 -5 -110.5t-17 -65.5h-62v7q17 9 21 52t4 86q0 59 14.5 91t60.5 44q-41 10 -61.5 47.5t-20.5 83.5q0 79 47 112q41 29 125 29h109v-552h-58v255h-41zM283 500h-52q-62 0 -85 -17q-29 -21 -29 -79q0 -49 26.5 -73.5
t72.5 -24.5h67v194z" />
    <glyph glyph-name="ydieresis" unicode="&#x44f;" horiz-adv-x="402" 
d="M242 255q-60 0 -82 -11q-34 -17 -34 -68q0 -71 -5 -110.5t-17 -65.5h-62v7q17 9 21 52t4 86q0 59 14.5 91t60.5 44q-41 10 -61.5 47.5t-20.5 83.5q0 79 47 112q41 29 125 29h109v-552h-58v255h-41zM283 500h-52q-62 0 -85 -17q-29 -21 -29 -79q0 -49 26.5 -73.5
t72.5 -24.5h67v194z" />
    <glyph glyph-name="OE" unicode="&#x152;" horiz-adv-x="851" 
d="M488 364v-306h57q104 0 147 26q58 35 58 131q0 83 -43 118q-39 31 -122 31h-97zM423 373h-290v-373h-65v750h65v-319h290v319h65v-328h69q135 0 193 -41q65 -46 65 -160q0 -59 -14.5 -99.5t-48.5 -68.5q-24 -21 -65 -35q-52 -18 -98 -18h-166v373z" />
    <glyph glyph-name="OE" unicode="&#x40a;" horiz-adv-x="851" 
d="M488 364v-306h57q104 0 147 26q58 35 58 131q0 83 -43 118q-39 31 -122 31h-97zM423 373h-290v-373h-65v750h65v-319h290v319h65v-328h69q135 0 193 -41q65 -46 65 -160q0 -59 -14.5 -99.5t-48.5 -68.5q-24 -21 -65 -35q-52 -18 -98 -18h-166v373z" />
    <glyph glyph-name="oe" unicode="&#x153;" horiz-adv-x="648" 
d="M379 263v-211h24q80 0 110 16q43 23 43 93q0 60 -32 83q-27 19 -91 19h-54zM321 270h-198v-270h-58v552h58v-231h198v231h58v-237h42q100 0 144 -31q49 -35 49 -119q0 -42 -11.5 -74t-36 -52.5t-61 -29.5t-60.5 -9h-124v270z" />
    <glyph glyph-name="oe" unicode="&#x45a;" horiz-adv-x="648" 
d="M379 263v-211h24q80 0 110 16q43 23 43 93q0 60 -32 83q-27 19 -91 19h-54zM321 270h-198v-270h-58v552h58v-231h198v231h58v-237h42q100 0 144 -31q49 -35 49 -119q0 -42 -11.5 -74t-36 -52.5t-61 -29.5t-60.5 -9h-124v270z" />
    <glyph glyph-name="Scaron" unicode="&#x160;" horiz-adv-x="851" 
d="M488 364v-306h57q104 0 147 26q58 35 58 131q0 83 -43 118q-39 31 -122 31h-97zM488 750v-328h69q135 0 193 -41q65 -46 65 -160q0 -59 -14.5 -99.5t-48.5 -68.5q-24 -21 -65 -35q-52 -18 -98 -18h-166v692h-247v-432q0 -176 -35 -227t-113 -51v64q56 0 72 58
q11 40 11 166v480h377z" />
    <glyph glyph-name="Scaron" unicode="&#x409;" horiz-adv-x="851" 
d="M488 364v-306h57q104 0 147 26q58 35 58 131q0 83 -43 118q-39 31 -122 31h-97zM488 750v-328h69q135 0 193 -41q65 -46 65 -160q0 -59 -14.5 -99.5t-48.5 -68.5q-24 -21 -65 -35q-52 -18 -98 -18h-166v692h-247v-432q0 -176 -35 -227t-113 -51v64q56 0 72 58
q11 40 11 166v480h377z" />
    <glyph glyph-name="scaron" unicode="&#x161;" horiz-adv-x="648" 
d="M379 263v-211h24q80 0 110 16q43 23 43 93q0 60 -32 83q-27 19 -91 19h-54zM379 552v-237h42q100 0 144 -31q49 -35 49 -119q0 -42 -11.5 -74t-36 -52.5t-61 -29.5t-60.5 -9h-124v500h-166v-309q0 -123 -33 -167q-29 -38 -87 -38v60q40 0 51 32.5t11 120.5v353h282z" />
    <glyph glyph-name="scaron" unicode="&#x459;" horiz-adv-x="648" 
d="M379 263v-211h24q80 0 110 16q43 23 43 93q0 60 -32 83q-27 19 -91 19h-54zM379 552v-237h42q100 0 144 -31q49 -35 49 -119q0 -42 -11.5 -74t-36 -52.5t-61 -29.5t-60.5 -9h-124v500h-166v-309q0 -123 -33 -167q-29 -38 -87 -38v60q40 0 51 32.5t11 120.5v353h282z" />
    <glyph glyph-name="Ydieresis" unicode="&#x178;" 
d="M248 0v-108h-57v108h-126v552h58l-4 -500h198l4 500h58v-552h-131z" />
    <glyph glyph-name="Ydieresis" unicode="&#x45f;" 
d="M248 0v-108h-57v108h-126v552h58l-4 -500h198l4 500h58v-552h-131z" />
    <glyph glyph-name="florin" unicode="&#x192;" horiz-adv-x="360" 
d="M123 0h-57v552h258v-52h-201v-500zM169 606h-51l111 139h78z" />
    <glyph glyph-name="florin" unicode="&#x453;" horiz-adv-x="360" 
d="M123 0h-57v552h258v-52h-201v-500zM169 606h-51l111 139h78z" />
    <glyph glyph-name="endash" unicode="&#x2013;" horiz-adv-x="500" 
d="M500 273h-500v51h500v-51z" />
    <glyph glyph-name="emdash" unicode="&#x2014;" horiz-adv-x="1000" 
d="M1000 273h-1000v51h1000v-51z" />
    <glyph glyph-name="quoteleft" unicode="&#x2018;" horiz-adv-x="160" 
d="M111 750v-37q-19 -8 -24.5 -26.5t-5.5 -47.5v-12v-13h30v-88h-69v56q0 11 1 35t1 36q4 45 18.5 66.5t48.5 30.5z" />
    <glyph glyph-name="quoteright" unicode="&#x2019;" horiz-adv-x="160" 
d="M49 526v37q17 7 23.5 23.5t6.5 62.5v13h-30v88h69v-56q0 -11 -1 -35t-1 -36q-4 -45 -18.5 -66.5t-48.5 -30.5z" />
    <glyph glyph-name="quotesinglbase" unicode="&#x201a;" horiz-adv-x="222" 
d="M77 -136v37q17 7 23.5 23.5t6.5 62.5v13h-30v88h69v-56q0 -11 -1 -35t-1 -36q-4 -45 -18.5 -66.5t-48.5 -30.5z" />
    <glyph glyph-name="quotedblleft" unicode="&#x201c;" horiz-adv-x="333" 
d="M154 750v-37q-19 -8 -24.5 -26.5t-5.5 -47.5v-12v-13h30v-88h-69v56q0 11 1 35t1 36q4 45 18.5 66.5t48.5 30.5zM284 750v-37q-19 -8 -24.5 -26.5t-5.5 -47.5v-12v-13h30v-88h-69v56q0 11 1 35t1 36q4 45 18.5 66.5t48.5 30.5z" />
    <glyph glyph-name="quotedblright" unicode="&#x201d;" horiz-adv-x="333" 
d="M179 526v37q17 7 23.5 23.5t6.5 62.5v13h-30v88h69v-56q0 -11 -1 -35t-1 -36q-4 -45 -18.5 -66.5t-48.5 -30.5zM49 526v37q17 7 23.5 23.5t6.5 62.5v13h-30v88h69v-56q0 -11 -1 -35t-1 -36q-4 -45 -18.5 -66.5t-48.5 -30.5z" />
    <glyph glyph-name="quotedblbase" unicode="&#x201e;" horiz-adv-x="330" 
d="M196 -136v37q17 7 23.5 23.5t6.5 62.5v13h-30v88h69v-56q0 -11 -1 -35t-1 -36q-4 -45 -18.5 -66.5t-48.5 -30.5zM66 -136v37q17 7 23.5 23.5t6.5 62.5v13h-30v88h69v-56q0 -11 -1 -35t-1 -36q-4 -45 -18.5 -66.5t-48.5 -30.5z" />
    <glyph glyph-name="dagger" unicode="&#x2020;" 
d="M252 539h160v-51h-160v-605h-58v605h-162v51h162v229h58v-229z" />
    <glyph glyph-name="daggerdbl" unicode="&#x2021;" 
d="M251 157h162v-51h-162v-223h-58v223h-162v51h162v338h-160v51h160v222h58v-222h162v-51h-162v-338z" />
    <glyph glyph-name="bullet" unicode="&#x2022;" horiz-adv-x="606" 
d="M490 375q0 -76 -55 -131t-133 -55q-76 0 -131 55t-55 131q0 77 54.5 132.5t131.5 55.5q78 0 133 -55t55 -133z" />
    <glyph glyph-name="ellipsis" unicode="&#x2026;" horiz-adv-x="1000" 
d="M202 0h-69v88h69v-88zM535 0h-69v88h69v-88zM868 0h-69v88h69v-88z" />
    <glyph glyph-name="perthousand" unicode="&#x2030;" horiz-adv-x="1000" 
d="M165 -15l304 756h44l-305 -756h-43zM513 358q72 0 105 -57q26 -46 26 -124q0 -93 -34 -136t-98 -43q-78 0 -109 55q-24 43 -24 124q0 82 25 125q33 56 109 56zM513 314q-47 0 -66 -52q-12 -33 -12 -84q0 -74 19.5 -105t60.5 -31q39 0 56 37t17 99q0 60 -10 88
q-17 48 -65 48zM835 358q72 0 105 -57q26 -46 26 -124q0 -93 -34 -136t-98 -43q-78 0 -109 55q-24 43 -24 124q0 82 25 125q33 56 109 56zM835 314q-47 0 -66 -52q-12 -33 -12 -84q0 -74 19.5 -105t60.5 -31q39 0 56 37t17 99q0 60 -10 88q-17 48 -65 48zM168 728
q72 0 105 -57q26 -46 26 -124q0 -93 -34 -136t-98 -43q-78 0 -109 55q-24 43 -24 124q0 82 25 125q33 56 109 56zM168 684q-47 0 -66 -52q-12 -33 -12 -84q0 -74 19.5 -105t60.5 -31q39 0 56 37t17 99q0 60 -10 88q-17 48 -65 48z" />
    <glyph glyph-name="guilsinglleft" unicode="&#x2039;" horiz-adv-x="333" 
d="M231 130l-141 106v70l141 106v-60l-101 -81l101 -79v-62z" />
    <glyph glyph-name="guilsinglright" unicode="&#x203a;" horiz-adv-x="333" 
d="M102 352v60l141 -106v-70l-141 -106v62l102 79z" />
    <glyph glyph-name="trademark" unicode="&#x2122;" horiz-adv-x="722" 
d="M666 750v-421h-51v368l-96 -368h-36l-93 368l-2 -368h-51v421h88l75 -297l80 297h86zM292 750v-51h-92v-370h-51v370h-92v51h235z" />
    </font>
</defs>
</svg>
